<mxfile modified="2021-03-03T06:35:10.981Z" host="app.diagrams.net" agent="5.0 (Macintosh; Intel Mac OS X 10_15_7) AppleWebKit/605.1.15 (KHTML, like Gecko) Version/14.0.3 Safari/605.1.15" etag="R87NZpLtOQ6GSf1OVVDf" version="14.4.3" type="github">
  <diagram id="WI9T0HZ2pTsCkuznbFz-" name="Page-1">
    <mxGraphModel dx="786" dy="475" grid="1" gridSize="10" guides="1" tooltips="1" connect="1" arrows="1" fold="1" page="1" pageScale="1" pageWidth="1169" pageHeight="827" math="0" shadow="0">
      <root>
        <mxCell id="0" />
        <mxCell id="1" parent="0" />
        <mxCell id="-hulnyi_TNN2O9-WLHMJ-35" value="" style="rounded=0;whiteSpace=wrap;html=1;" vertex="1" parent="1">
          <mxGeometry x="44.5" y="383" width="195.5" height="110" as="geometry" />
        </mxCell>
        <mxCell id="-hulnyi_TNN2O9-WLHMJ-56" style="edgeStyle=orthogonalEdgeStyle;rounded=0;orthogonalLoop=1;jettySize=auto;html=1;entryX=0.017;entryY=0.663;entryDx=0;entryDy=0;entryPerimeter=0;" edge="1" parent="1" source="-hulnyi_TNN2O9-WLHMJ-45" target="-hulnyi_TNN2O9-WLHMJ-40">
          <mxGeometry relative="1" as="geometry" />
        </mxCell>
        <mxCell id="-hulnyi_TNN2O9-WLHMJ-45" value="" style="rounded=0;whiteSpace=wrap;html=1;" vertex="1" parent="1">
          <mxGeometry x="173.25" y="610" width="195.5" height="110" as="geometry" />
        </mxCell>
        <mxCell id="-hulnyi_TNN2O9-WLHMJ-50" style="edgeStyle=orthogonalEdgeStyle;rounded=0;orthogonalLoop=1;jettySize=auto;html=1;entryX=0.75;entryY=0;entryDx=0;entryDy=0;" edge="1" parent="1" source="-hulnyi_TNN2O9-WLHMJ-33" target="-hulnyi_TNN2O9-WLHMJ-45">
          <mxGeometry relative="1" as="geometry" />
        </mxCell>
        <mxCell id="-hulnyi_TNN2O9-WLHMJ-33" value="" style="rounded=0;whiteSpace=wrap;html=1;" vertex="1" parent="1">
          <mxGeometry x="294.5" y="383" width="195.5" height="110" as="geometry" />
        </mxCell>
        <mxCell id="-hulnyi_TNN2O9-WLHMJ-16" style="edgeStyle=orthogonalEdgeStyle;rounded=0;orthogonalLoop=1;jettySize=auto;html=1;entryX=0;entryY=0.5;entryDx=0;entryDy=0;" edge="1" parent="1" source="-hulnyi_TNN2O9-WLHMJ-8" target="-hulnyi_TNN2O9-WLHMJ-15">
          <mxGeometry relative="1" as="geometry" />
        </mxCell>
        <mxCell id="-hulnyi_TNN2O9-WLHMJ-8" value="" style="shape=image;verticalLabelPosition=bottom;labelBackgroundColor=#ffffff;verticalAlign=top;aspect=fixed;imageAspect=0;image=data:image/svg+xml,PHN2ZyB4bWxuczpjYz0iaHR0cDovL2NyZWF0aXZlY29tbW9ucy5vcmcvbnMjIiB4bWxuczpkYz0iaHR0cDovL3B1cmwub3JnL2RjL2VsZW1lbnRzLzEuMS8iIHhtbG5zOmlua3NjYXBlPSJodHRwOi8vd3d3Lmlua3NjYXBlLm9yZy9uYW1lc3BhY2VzL2lua3NjYXBlIiB4bWxuczpyZGY9Imh0dHA6Ly93d3cudzMub3JnLzE5OTkvMDIvMjItcmRmLXN5bnRheC1ucyMiIHhtbG5zOnNvZGlwb2RpPSJodHRwOi8vc29kaXBvZGkuc291cmNlZm9yZ2UubmV0L0RURC9zb2RpcG9kaS0wLmR0ZCIgeG1sbnM6c3ZnPSJodHRwOi8vd3d3LnczLm9yZy8yMDAwL3N2ZyIgeG1sbnM9Imh0dHA6Ly93d3cudzMub3JnLzIwMDAvc3ZnIiB4bWxuczp4bGluaz0iaHR0cDovL3d3dy53My5vcmcvMTk5OS94bGluayIgdmVyc2lvbj0iMS4xIiBpZD0ic3ZnMjQzOTciIGlua3NjYXBlOnZlcnNpb249IjAuOTIuMyAoMjQwNTU0NiwgMjAxOC0wMy0xMSkiIHNvZGlwb2RpOmRvY25hbWU9Im1vYmlsZV8zLnN2ZyIgeD0iMHB4IiB5PSIwcHgiIHZpZXdCb3g9IjAgMCAyNCA0My41IiBzdHlsZT0iZW5hYmxlLWJhY2tncm91bmQ6bmV3IDAgMCAyNCA0My41OyIgeG1sOnNwYWNlPSJwcmVzZXJ2ZSI+JiN4YTs8c29kaXBvZGk6bmFtZWR2aWV3IGJvcmRlcmNvbG9yPSIjNjY2NjY2IiBib3JkZXJvcGFjaXR5PSIxIiBmaXQtbWFyZ2luLWJvdHRvbT0iMCIgZml0LW1hcmdpbi1sZWZ0PSIwIiBmaXQtbWFyZ2luLXJpZ2h0PSIwIiBmaXQtbWFyZ2luLXRvcD0iMCIgZ3JpZHRvbGVyYW5jZT0iMTAiIGd1aWRldG9sZXJhbmNlPSIxMCIgaWQ9Im5hbWVkdmlldzI0Mzk5IiBpbmtzY2FwZTpjdXJyZW50LWxheWVyPSJzdmcyNDM5NyIgaW5rc2NhcGU6Y3g9IjE2IiBpbmtzY2FwZTpjeT0iMjkiIGlua3NjYXBlOnBhZ2VvcGFjaXR5PSIwIiBpbmtzY2FwZTpwYWdlc2hhZG93PSIyIiBpbmtzY2FwZTp3aW5kb3ctaGVpZ2h0PSIxMDE3IiBpbmtzY2FwZTp3aW5kb3ctbWF4aW1pemVkPSIxIiBpbmtzY2FwZTp3aW5kb3ctd2lkdGg9IjE5MjAiIGlua3NjYXBlOndpbmRvdy14PSItOCIgaW5rc2NhcGU6d2luZG93LXk9Ii04IiBpbmtzY2FwZTp6b29tPSIxNC40NSIgb2JqZWN0dG9sZXJhbmNlPSIxMCIgcGFnZWNvbG9yPSIjZmZmZmZmIiBzaG93Z3JpZD0iZmFsc2UiPiYjeGE7CTwvc29kaXBvZGk6bmFtZWR2aWV3PiYjeGE7PGcgaWQ9ImcyNDM5NSIgdHJhbnNmb3JtPSJ0cmFuc2xhdGUoLTAuNzUwMDEyODcsLTAuNzUpIj4mI3hhOwk8dGl0bGUgaWQ9InRpdGxlMjQzNDUiPlBhZ2UtMTwvdGl0bGU+JiN4YTsJPGcgaWQ9Imdyb3VwMzM0My0xIiB0cmFuc2Zvcm09InRyYW5zbGF0ZSgxLjUsLTEuNSkiPiYjeGE7CQk8dGl0bGUgaWQ9InRpdGxlMjQzNDciPk1vYmlsZSAjMzwvdGl0bGU+JiN4YTsJCTxnIGlkPSJzaGFwZTMzNDQtMiI+JiN4YTsJCQk8dGl0bGUgaWQ9InRpdGxlMjQzNDkiPnJlY3QyMTcxPC90aXRsZT4mI3hhOwkJCSYjeGE7CQkJCTxwYXRoIGlkPSJwYXRoMjQzNTEiIGlua3NjYXBlOmNvbm5lY3Rvci1jdXJ2YXR1cmU9IjAiIHN0eWxlPSJmaWxsOiNGQ0ZDRkM7c3Ryb2tlOiM1NTZBOEE7c3Ryb2tlLXdpZHRoOjEuNTtzdHJva2UtbWl0ZXJsaW1pdDozOyIgZD0iICAgICBNMCw0MmMwLDEuNjYsMS4zNCwzLDMsM2gxNi41YzEuNjYsMCwzLTEuMzQsMy0zVjZjMC0xLjY2LTEuMzQtMy0zLTNIM0MxLjM0LDMsMCw0LjM0LDAsNlY0MnoiLz4mI3hhOwkJPC9nPiYjeGE7CQk8ZyBpZD0ic2hhcGUzMzQ1LTQiIHRyYW5zZm9ybT0idHJhbnNsYXRlKDIuMjUsLTYuNzUpIj4mI3hhOwkJCTx0aXRsZSBpZD0idGl0bGUyNDM1NCI+cmVjdDIxNzM8L3RpdGxlPiYjeGE7CQkJPHJlY3QgaWQ9InJlY3QyNDM1NiIgeD0iMCIgeT0iMTQuMjUiIHN0eWxlPSJmaWxsOiNFNUU1RTU7IiB3aWR0aD0iMTgiIGhlaWdodD0iMzAuNzUiLz4mI3hhOwkJPC9nPiYjeGE7CQk8ZyBpZD0ic2hhcGUzMzQ2LTYiIHRyYW5zZm9ybT0idHJhbnNsYXRlKDcuNSwtMzguMjUpIj4mI3hhOwkJCTx0aXRsZSBpZD0idGl0bGUyNDM1OSI+cGF0aDIxNzU8L3RpdGxlPiYjeGE7CQkJPHBhdGggaWQ9InBhdGgyNDM2MSIgaW5rc2NhcGU6Y29ubmVjdG9yLWN1cnZhdHVyZT0iMCIgc3R5bGU9ImZpbGw6IzJCQzdGNDsiIGQ9Ik02LjIsNDVIMC41NUMwLjI1LDQ1LDAsNDQuNjYsMCw0NC4yNSAgICAgczAuMjUtMC43NSwwLjU1LTAuNzVINi4yYzAuMywwLDAuNTUsMC4zNCwwLjU1LDAuNzVTNi41LDQ1LDYuMiw0NXoiLz4mI3hhOwkJPC9nPiYjeGE7CQk8ZyBpZD0ic2hhcGUzMzQ3LTgiIHRyYW5zZm9ybT0idHJhbnNsYXRlKDguMjUsLTMuMDgyNSkiPiYjeGE7CQkJPHRpdGxlIGlkPSJ0aXRsZTI0MzY0Ij5wYXRoMjE3NzwvdGl0bGU+JiN4YTsJCQk8cGF0aCBpZD0icGF0aDI0MzY2IiBpbmtzY2FwZTpjb25uZWN0b3ItY3VydmF0dXJlPSIwIiBzdHlsZT0iZmlsbDojMkJDN0Y0OyIgZD0iTTUuNTEsNDVIMC40OUMwLjIyLDQ1LDAsNDQuNywwLDQ0LjMzICAgICBjMC0wLjM3LDAuMjItMC42NywwLjQ5LTAuNjdoNS4wMmMwLjI3LDAsMC40OSwwLjMsMC40OSwwLjY3QzYsNDQuNyw1Ljc4LDQ1LDUuNTEsNDV6Ii8+JiN4YTsJCTwvZz4mI3hhOwkJPGcgaWQ9InNoYXBlMzM0OC0xMCIgdHJhbnNmb3JtPSJ0cmFuc2xhdGUoMy43NSwtMykiPiYjeGE7CQkJPHRpdGxlIGlkPSJ0aXRsZTI0MzY5Ij5jaXJjbGUyMTc5PC90aXRsZT4mI3hhOwkJCTxjaXJjbGUgaWQ9ImVsbGlwc2UyNDM3MSIgc3R5bGU9ImZpbGw6IzJCQzdGNDsiIGN4PSIwLjc1IiBjeT0iNDQuMjUiIHI9IjAuNzUiLz4mI3hhOwkJPC9nPiYjeGE7CQk8ZyBpZD0ic2hhcGUzMzQ5LTEyIiB0cmFuc2Zvcm09InRyYW5zbGF0ZSgxNy4yNSwtMykiPiYjeGE7CQkJPHRpdGxlIGlkPSJ0aXRsZTI0Mzc0Ij5jaXJjbGUyMTgxPC90aXRsZT4mI3hhOwkJCTxjaXJjbGUgaWQ9ImVsbGlwc2UyNDM3NiIgc3R5bGU9ImZpbGw6IzJCQzdGNDsiIGN4PSIwLjc1IiBjeT0iNDQuMjUiIHI9IjAuNzUiLz4mI3hhOwkJPC9nPiYjeGE7CQk8ZyBpZD0ic2hhcGUzMzUwLTE0IiB0cmFuc2Zvcm09InRyYW5zbGF0ZSg0LjUsLTI3Ljc1KSI+JiN4YTsJCQk8dGl0bGUgaWQ9InRpdGxlMjQzNzkiPnJlY3QyMTgzPC90aXRsZT4mI3hhOwkJCTxyZWN0IGlkPSJyZWN0MjQzODEiIHg9IjAiIHk9IjM5Ljc1IiBzdHlsZT0iZmlsbDojMkJDN0Y0OyIgd2lkdGg9IjcuNSIgaGVpZ2h0PSI1LjI1Ii8+JiN4YTsJCTwvZz4mI3hhOwkJPGcgaWQ9InNoYXBlMzM1MS0xNiIgdHJhbnNmb3JtPSJ0cmFuc2xhdGUoMTIuNzUsLTI3Ljc1KSI+JiN4YTsJCQk8dGl0bGUgaWQ9InRpdGxlMjQzODQiPnJlY3QyMTg1PC90aXRsZT4mI3hhOwkJCTxyZWN0IGlkPSJyZWN0MjQzODYiIHg9IjAiIHk9IjM5Ljc1IiBzdHlsZT0iZmlsbDojQUJBQkFCOyIgd2lkdGg9IjUuMjUiIGhlaWdodD0iNS4yNSIvPiYjeGE7CQk8L2c+JiN4YTsJCTxnIGlkPSJzaGFwZTMzNTItMTgiIHRyYW5zZm9ybT0idHJhbnNsYXRlKDQuNSwtMjEuNzUpIj4mI3hhOwkJCTx0aXRsZSBpZD0idGl0bGUyNDM4OSI+cmVjdDIxODc8L3RpdGxlPiYjeGE7CQkJPHJlY3QgaWQ9InJlY3QyNDM5MSIgeD0iMCIgeT0iMzkuNzUiIHN0eWxlPSJmaWxsOiM1NUQyRjY7IiB3aWR0aD0iNS4yNSIgaGVpZ2h0PSI1LjI1Ii8+JiN4YTsJCTwvZz4mI3hhOwk8L2c+JiN4YTs8L2c+JiN4YTs8L3N2Zz4=;" vertex="1" parent="1">
          <mxGeometry x="30" y="140" width="24" height="44" as="geometry" />
        </mxCell>
        <mxCell id="-hulnyi_TNN2O9-WLHMJ-23" style="edgeStyle=orthogonalEdgeStyle;rounded=0;orthogonalLoop=1;jettySize=auto;html=1;" edge="1" parent="1" source="-hulnyi_TNN2O9-WLHMJ-15">
          <mxGeometry relative="1" as="geometry">
            <mxPoint x="289.5" y="130" as="targetPoint" />
          </mxGeometry>
        </mxCell>
        <mxCell id="-hulnyi_TNN2O9-WLHMJ-15" value="" style="shape=image;verticalLabelPosition=bottom;labelBackgroundColor=#ffffff;verticalAlign=top;aspect=fixed;imageAspect=0;image=data:image/svg+xml,PHN2ZyB4bWxuczpjYz0iaHR0cDovL2NyZWF0aXZlY29tbW9ucy5vcmcvbnMjIiB4bWxuczpkYz0iaHR0cDovL3B1cmwub3JnL2RjL2VsZW1lbnRzLzEuMS8iIHhtbG5zOmlua3NjYXBlPSJodHRwOi8vd3d3Lmlua3NjYXBlLm9yZy9uYW1lc3BhY2VzL2lua3NjYXBlIiB4bWxuczpyZGY9Imh0dHA6Ly93d3cudzMub3JnLzE5OTkvMDIvMjItcmRmLXN5bnRheC1ucyMiIHhtbG5zOnNvZGlwb2RpPSJodHRwOi8vc29kaXBvZGkuc291cmNlZm9yZ2UubmV0L0RURC9zb2RpcG9kaS0wLmR0ZCIgeG1sbnM6c3ZnPSJodHRwOi8vd3d3LnczLm9yZy8yMDAwL3N2ZyIgeG1sbnM9Imh0dHA6Ly93d3cudzMub3JnLzIwMDAvc3ZnIiB4bWxuczp4bGluaz0iaHR0cDovL3d3dy53My5vcmcvMTk5OS94bGluayIgdmVyc2lvbj0iMS4xIiBpZD0ic3ZnMTU5OTk0IiBpbmtzY2FwZTp2ZXJzaW9uPSIwLjkyLjMgKDI0MDU1NDYsIDIwMTgtMDMtMTEpIiBzb2RpcG9kaTpkb2NuYW1lPSJjbG91ZC5zdmciIHg9IjBweCIgeT0iMHB4IiB2aWV3Qm94PSIwIDAgOTguNjMgNTUuNDkiIHN0eWxlPSJlbmFibGUtYmFja2dyb3VuZDpuZXcgMCAwIDk4LjYzIDU1LjQ5OyIgeG1sOnNwYWNlPSJwcmVzZXJ2ZSI+JiN4YTs8c29kaXBvZGk6bmFtZWR2aWV3IGJvcmRlcmNvbG9yPSIjNjY2NjY2IiBib3JkZXJvcGFjaXR5PSIxIiBmaXQtbWFyZ2luLWJvdHRvbT0iMCIgZml0LW1hcmdpbi1sZWZ0PSIwIiBmaXQtbWFyZ2luLXJpZ2h0PSIwIiBmaXQtbWFyZ2luLXRvcD0iMCIgZ3JpZHRvbGVyYW5jZT0iMTAiIGd1aWRldG9sZXJhbmNlPSIxMCIgaWQ9Im5hbWVkdmlldzE1OTk5NiIgaW5rc2NhcGU6Y3VycmVudC1sYXllcj0ic3ZnMTU5OTk0IiBpbmtzY2FwZTpjeD0iOTQuNDE3MTI2IiBpbmtzY2FwZTpjeT0iMTcuMjUyNzU5IiBpbmtzY2FwZTpwYWdlb3BhY2l0eT0iMCIgaW5rc2NhcGU6cGFnZXNoYWRvdz0iMiIgaW5rc2NhcGU6d2luZG93LWhlaWdodD0iMTAxNyIgaW5rc2NhcGU6d2luZG93LW1heGltaXplZD0iMSIgaW5rc2NhcGU6d2luZG93LXdpZHRoPSIxOTIwIiBpbmtzY2FwZTp3aW5kb3cteD0iLTgiIGlua3NjYXBlOndpbmRvdy15PSItOCIgaW5rc2NhcGU6em9vbT0iNS44NTk1MzIzIiBvYmplY3R0b2xlcmFuY2U9IjEwIiBwYWdlY29sb3I9IiNmZmZmZmYiIHNob3dncmlkPSJmYWxzZSI+JiN4YTsJPC9zb2RpcG9kaTpuYW1lZHZpZXc+JiN4YTs8ZyBpZD0iZzE1OTk5MiIgdHJhbnNmb3JtPSJ0cmFuc2xhdGUoMCwtNS40MDY5NTQ4ZS01KSI+JiN4YTsJPHRpdGxlIGlkPSJ0aXRsZTE1OTk4NSI+UGFnZS0xPC90aXRsZT4mI3hhOwk8ZyBpZD0ic2hhcGUzNDQyLTEiPiYjeGE7CQk8dGl0bGUgaWQ9InRpdGxlMTU5OTg3Ij5DbG91ZCAjMTwvdGl0bGU+JiN4YTsJCTxwYXRoIGlkPSJwYXRoMTU5OTg5IiBpbmtzY2FwZTpjb25uZWN0b3ItY3VydmF0dXJlPSIwIiBzdHlsZT0iZmlsbDojM0Y1NzY1OyIgZD0iTTc3LjY3LDU1LjQ5Yy02MC45NywwLTYwLjk3LDAtNjAuOTcsMCAgICBDNy4xNyw1NS40OSwwLDQ3LjY3LDAsMzguNjFjMC05LjYyLDcuMTctMTcuNTUsMTYuNy0xNy41NWMxLjc5LDAsMy41OSwwLjY4LDUuMzgsMS4yNUMyNC40Myw5LjA2LDM1Ljg3LDAsNDguOTgsMCAgICBjMTAuMiwwLDE5LjE2LDUuNDQsMjMuODcsMTMuODJjMS44LDAsMy4wMy0wLjU3LDQuODItMC41N2MxMS4zMiwwLDIwLjk2LDkuNjIsMjAuOTYsMjEuMTdDOTguNjMsNDUuODYsODguOTksNTUuNDksNzcuNjcsNTUuNDl6ICAgICBNMTYuNywyNS45M2MtNi42MSwwLTExLjk5LDYtMTEuOTksMTIuNjhjMCw2LjY5LDUuMzgsMTIuMTIsMTEuOTksMTIuMTJjNjAuOTcsMCw2MC45NywwLDYwLjk3LDBjOC45NywwLDE2LjE0LTcuMjUsMTYuMTQtMTYuMzEgICAgYzAtOS4wNS03LjE3LTE2LjMtMTYuMTQtMTYuM2MtMS43OSwwLTMuNTksMC41Ni00LjgyLDEuMTNjLTIuMzUsMC42OC0yLjM1LDAuNjgtMi4zNSwwLjY4Yy0wLjU2LTEuODEtMC41Ni0xLjgxLTAuNTYtMS44MSAgICBDNjUuNjgsOS42Myw1Ny45NSw0Ljc2LDQ4Ljk4LDQuNzZjLTExLjk5LDAtMjIuMDgsOS4wNi0yMi43NSwyMS4xN2MtMC41NiwzLjYzLTAuNTYsMy42My0wLjU2LDMuNjMgICAgYy0zLjAzLTEuODItMy4wMy0xLjgyLTMuMDMtMS44MkMyMC44NSwyNi41LDE4LjQ5LDI1LjkzLDE2LjcsMjUuOTN6Ii8+JiN4YTsJPC9nPiYjeGE7PC9nPiYjeGE7PC9zdmc+;" vertex="1" parent="1">
          <mxGeometry x="240" y="40" width="99" height="55" as="geometry" />
        </mxCell>
        <mxCell id="-hulnyi_TNN2O9-WLHMJ-42" style="edgeStyle=orthogonalEdgeStyle;rounded=0;orthogonalLoop=1;jettySize=auto;html=1;" edge="1" parent="1">
          <mxGeometry relative="1" as="geometry">
            <mxPoint x="379.5" y="380" as="targetPoint" />
            <mxPoint x="379.5" y="320" as="sourcePoint" />
          </mxGeometry>
        </mxCell>
        <mxCell id="-hulnyi_TNN2O9-WLHMJ-26" style="edgeStyle=orthogonalEdgeStyle;rounded=0;orthogonalLoop=1;jettySize=auto;html=1;" edge="1" parent="1" source="-hulnyi_TNN2O9-WLHMJ-22">
          <mxGeometry relative="1" as="geometry">
            <mxPoint x="199.5" y="260" as="targetPoint" />
          </mxGeometry>
        </mxCell>
        <mxCell id="-hulnyi_TNN2O9-WLHMJ-27" style="edgeStyle=orthogonalEdgeStyle;rounded=0;orthogonalLoop=1;jettySize=auto;html=1;entryX=0.5;entryY=0;entryDx=0;entryDy=0;" edge="1" parent="1" source="-hulnyi_TNN2O9-WLHMJ-22">
          <mxGeometry relative="1" as="geometry">
            <mxPoint x="379.5" y="260" as="targetPoint" />
          </mxGeometry>
        </mxCell>
        <mxCell id="-hulnyi_TNN2O9-WLHMJ-22" value="" style="outlineConnect=0;fontColor=#232F3E;gradientColor=none;fillColor=#5A30B5;strokeColor=none;dashed=0;verticalLabelPosition=bottom;verticalAlign=top;align=center;html=1;fontSize=12;fontStyle=0;aspect=fixed;pointerEvents=1;shape=mxgraph.aws4.application_load_balancer;" vertex="1" parent="1">
          <mxGeometry x="250.5" y="130" width="78" height="78" as="geometry" />
        </mxCell>
        <mxCell id="-hulnyi_TNN2O9-WLHMJ-41" style="edgeStyle=orthogonalEdgeStyle;rounded=0;orthogonalLoop=1;jettySize=auto;html=1;entryX=0.75;entryY=0;entryDx=0;entryDy=0;" edge="1" parent="1" target="-hulnyi_TNN2O9-WLHMJ-35">
          <mxGeometry relative="1" as="geometry">
            <mxPoint x="199.5" y="320" as="sourcePoint" />
          </mxGeometry>
        </mxCell>
        <mxCell id="-hulnyi_TNN2O9-WLHMJ-30" value="" style="html=1;dashed=0;whitespace=wrap;fillColor=#2875E2;strokeColor=#ffffff;points=[[0.005,0.63,0],[0.1,0.2,0],[0.9,0.2,0],[0.5,0,0],[0.995,0.63,0],[0.72,0.99,0],[0.5,1,0],[0.28,0.99,0]];shape=mxgraph.kubernetes.icon;prIcon=api" vertex="1" parent="1">
          <mxGeometry x="320" y="427" width="50" height="48" as="geometry" />
        </mxCell>
        <mxCell id="-hulnyi_TNN2O9-WLHMJ-60" style="edgeStyle=orthogonalEdgeStyle;rounded=0;orthogonalLoop=1;jettySize=auto;html=1;entryX=0;entryY=0.5;entryDx=0;entryDy=0;" edge="1" parent="1" source="-hulnyi_TNN2O9-WLHMJ-31" target="-hulnyi_TNN2O9-WLHMJ-59">
          <mxGeometry relative="1" as="geometry" />
        </mxCell>
        <mxCell id="-hulnyi_TNN2O9-WLHMJ-31" value="" style="html=1;dashed=0;whitespace=wrap;fillColor=#2875E2;strokeColor=#ffffff;points=[[0.005,0.63,0],[0.1,0.2,0],[0.9,0.2,0],[0.5,0,0],[0.995,0.63,0],[0.72,0.99,0],[0.5,1,0],[0.28,0.99,0]];shape=mxgraph.kubernetes.icon;prIcon=api" vertex="1" parent="1">
          <mxGeometry x="420" y="427" width="50" height="48" as="geometry" />
        </mxCell>
        <mxCell id="-hulnyi_TNN2O9-WLHMJ-55" style="edgeStyle=orthogonalEdgeStyle;rounded=0;orthogonalLoop=1;jettySize=auto;html=1;entryX=0;entryY=0.5;entryDx=0;entryDy=0;exitX=0.5;exitY=1;exitDx=0;exitDy=0;exitPerimeter=0;" edge="1" parent="1" source="-hulnyi_TNN2O9-WLHMJ-37" target="-hulnyi_TNN2O9-WLHMJ-45">
          <mxGeometry relative="1" as="geometry" />
        </mxCell>
        <mxCell id="-hulnyi_TNN2O9-WLHMJ-58" style="edgeStyle=orthogonalEdgeStyle;rounded=0;orthogonalLoop=1;jettySize=auto;html=1;" edge="1" parent="1" source="-hulnyi_TNN2O9-WLHMJ-36" target="-hulnyi_TNN2O9-WLHMJ-45">
          <mxGeometry relative="1" as="geometry">
            <Array as="points">
              <mxPoint x="95" y="665" />
            </Array>
          </mxGeometry>
        </mxCell>
        <mxCell id="-hulnyi_TNN2O9-WLHMJ-36" value="" style="html=1;dashed=0;whitespace=wrap;fillColor=#2875E2;strokeColor=#ffffff;points=[[0.005,0.63,0],[0.1,0.2,0],[0.9,0.2,0],[0.5,0,0],[0.995,0.63,0],[0.72,0.99,0],[0.5,1,0],[0.28,0.99,0]];shape=mxgraph.kubernetes.icon;prIcon=api" vertex="1" parent="1">
          <mxGeometry x="70" y="427" width="50" height="48" as="geometry" />
        </mxCell>
        <mxCell id="-hulnyi_TNN2O9-WLHMJ-37" value="" style="html=1;dashed=0;whitespace=wrap;fillColor=#2875E2;strokeColor=#ffffff;points=[[0.005,0.63,0],[0.1,0.2,0],[0.9,0.2,0],[0.5,0,0],[0.995,0.63,0],[0.72,0.99,0],[0.5,1,0],[0.28,0.99,0]];shape=mxgraph.kubernetes.icon;prIcon=api" vertex="1" parent="1">
          <mxGeometry x="170" y="427" width="50" height="48" as="geometry" />
        </mxCell>
        <mxCell id="-hulnyi_TNN2O9-WLHMJ-38" value="" style="aspect=fixed;html=1;points=[];align=center;image;fontSize=12;image=img/lib/mscae/Kubernetes.svg;" vertex="1" parent="1">
          <mxGeometry x="44.5" y="383" width="29.17" height="28" as="geometry" />
        </mxCell>
        <mxCell id="-hulnyi_TNN2O9-WLHMJ-39" value="" style="points=[[0,0,0],[0.25,0,0],[0.5,0,0],[0.75,0,0],[1,0,0],[0,1,0],[0.25,1,0],[0.5,1,0],[0.75,1,0],[1,1,0],[0,0.25,0],[0,0.5,0],[0,0.75,0],[1,0.25,0],[1,0.5,0],[1,0.75,0]];outlineConnect=0;fontColor=#232F3E;gradientColor=#945DF2;gradientDirection=north;fillColor=#5A30B5;strokeColor=#ffffff;dashed=0;verticalLabelPosition=bottom;verticalAlign=top;align=center;html=1;fontSize=12;fontStyle=0;aspect=fixed;shape=mxgraph.aws4.resourceIcon;resIcon=mxgraph.aws4.managed_streaming_for_kafka;" vertex="1" parent="1">
          <mxGeometry x="232" y="630" width="78" height="78" as="geometry" />
        </mxCell>
        <mxCell id="-hulnyi_TNN2O9-WLHMJ-57" style="edgeStyle=orthogonalEdgeStyle;rounded=0;orthogonalLoop=1;jettySize=auto;html=1;entryX=0.5;entryY=1;entryDx=0;entryDy=0;entryPerimeter=0;" edge="1" parent="1" source="-hulnyi_TNN2O9-WLHMJ-40" target="-hulnyi_TNN2O9-WLHMJ-31">
          <mxGeometry relative="1" as="geometry" />
        </mxCell>
        <mxCell id="-hulnyi_TNN2O9-WLHMJ-40" value="" style="shape=image;verticalLabelPosition=bottom;labelBackgroundColor=#ffffff;verticalAlign=top;aspect=fixed;imageAspect=0;image=data:image/svg+xml,PHN2ZyB4bWxuczpkYz0iaHR0cDovL3B1cmwub3JnL2RjL2VsZW1lbnRzLzEuMS8iIHhtbG5zOmNjPSJodHRwOi8vY3JlYXRpdmVjb21tb25zLm9yZy9ucyMiIHhtbG5zOnJkZj0iaHR0cDovL3d3dy53My5vcmcvMTk5OS8wMi8yMi1yZGYtc3ludGF4LW5zIyIgeG1sbnM6c3ZnPSJodHRwOi8vd3d3LnczLm9yZy8yMDAwL3N2ZyIgeG1sbnM9Imh0dHA6Ly93d3cudzMub3JnLzIwMDAvc3ZnIiB4bWxuczp4bGluaz0iaHR0cDovL3d3dy53My5vcmcvMTk5OS94bGluayIgeG1sbnM6c29kaXBvZGk9Imh0dHA6Ly9zb2RpcG9kaS5zb3VyY2Vmb3JnZS5uZXQvRFREL3NvZGlwb2RpLTAuZHRkIiB4bWxuczppbmtzY2FwZT0iaHR0cDovL3d3dy5pbmtzY2FwZS5vcmcvbmFtZXNwYWNlcy9pbmtzY2FwZSIgdmVyc2lvbj0iMS4xIiBpZD0iTGF5ZXJfMSIgeD0iMHB4IiB5PSIwcHgiIHZpZXdCb3g9IjAgMCAyNi45NDAwMDEgMzUuOTY2MzYyIiB4bWw6c3BhY2U9InByZXNlcnZlIiBzb2RpcG9kaTpkb2NuYW1lPSJzYXBfc2VfbW9uZ29kYi5zdmciIHdpZHRoPSIyNi45NDAwMDEiIGhlaWdodD0iMzUuOTY2MzYyIiBpbmtzY2FwZTp2ZXJzaW9uPSIwLjkyLjMgKDI0MDU1NDYsIDIwMTgtMDMtMTEpIj48bWV0YWRhdGEgaWQ9Im1ldGFkYXRhNTg2ODgiPjxyZGY6UkRGPjxjYzpXb3JrIHJkZjphYm91dD0iIj48ZGM6Zm9ybWF0PmltYWdlL3N2Zyt4bWw8L2RjOmZvcm1hdD48ZGM6dHlwZSByZGY6cmVzb3VyY2U9Imh0dHA6Ly9wdXJsLm9yZy9kYy9kY21pdHlwZS9TdGlsbEltYWdlIi8+PGRjOnRpdGxlLz48L2NjOldvcms+PC9yZGY6UkRGPjwvbWV0YWRhdGE+PGRlZnMgaWQ9ImRlZnM1ODY4NiIvPjxzb2RpcG9kaTpuYW1lZHZpZXcgcGFnZWNvbG9yPSIjZmZmZmZmIiBib3JkZXJjb2xvcj0iIzY2NjY2NiIgYm9yZGVyb3BhY2l0eT0iMSIgb2JqZWN0dG9sZXJhbmNlPSIxMCIgZ3JpZHRvbGVyYW5jZT0iMTAiIGd1aWRldG9sZXJhbmNlPSIxMCIgaW5rc2NhcGU6cGFnZW9wYWNpdHk9IjAiIGlua3NjYXBlOnBhZ2VzaGFkb3c9IjIiIGlua3NjYXBlOndpbmRvdy13aWR0aD0iMTkyMCIgaW5rc2NhcGU6d2luZG93LWhlaWdodD0iMTAxNyIgaWQ9Im5hbWVkdmlldzU4Njg0IiBzaG93Z3JpZD0iZmFsc2UiIGZpdC1tYXJnaW4tdG9wPSIwIiBmaXQtbWFyZ2luLWxlZnQ9IjAiIGZpdC1tYXJnaW4tcmlnaHQ9IjAiIGZpdC1tYXJnaW4tYm90dG9tPSIwIiBpbmtzY2FwZTp6b29tPSIxLjAzMDMwMyIgaW5rc2NhcGU6Y3g9Ii0yNi42NTUiIGlua3NjYXBlOmN5PSItMTc2LjQyMzY0IiBpbmtzY2FwZTp3aW5kb3cteD0iLTgiIGlua3NjYXBlOndpbmRvdy15PSItOCIgaW5rc2NhcGU6d2luZG93LW1heGltaXplZD0iMSIgaW5rc2NhcGU6Y3VycmVudC1sYXllcj0iTGF5ZXJfMSIvPiYjeGE7JiN4YTs8ZyBpZD0iZzU4NjgxIiB0cmFuc2Zvcm09InRyYW5zbGF0ZSgtMzI0LjAzLC0yMDguMzYpIj4mI3hhOwk8ZGVmcyBpZD0iZGVmczU4NjY0Ij4mI3hhOwkJPHJlY3QgaWQ9IlNWR0lEXzNfIiB4PSIzMjQuMDMiIHk9IjIwOC4zNiIgd2lkdGg9IjI4LjMyIiBoZWlnaHQ9IjM2LjgyIi8+JiN4YTsJPC9kZWZzPiYjeGE7CTxjbGlwUGF0aCBpZD0iU1ZHSURfNF8iPiYjeGE7CQk8dXNlIHhsaW5rOmhyZWY9IiNTVkdJRF8zXyIgc3R5bGU9Im92ZXJmbG93OnZpc2libGUiIGlkPSJ1c2U1ODY2NiIgeD0iMCIgeT0iMCIgd2lkdGg9IjEwMCUiIGhlaWdodD0iMTAwJSIvPiYjeGE7CTwvY2xpcFBhdGg+JiN4YTsJPGcgY2xpcC1wYXRoPSJ1cmwoI1NWR0lEXzRfKSIgaWQ9Imc1ODY3OSI+JiN4YTsJCTxkZWZzIGlkPSJkZWZzNTg2NzAiPiYjeGE7CQkJPHJlY3QgaWQ9IlNWR0lEXzVfIiB4PSIzMjQuMDMiIHk9IjIwOC4zNiIgd2lkdGg9IjI4LjMyIiBoZWlnaHQ9IjM2LjgyIi8+JiN4YTsJCTwvZGVmcz4mI3hhOwkJPGNsaXBQYXRoIGlkPSJTVkdJRF82XyI+JiN4YTsJCQk8dXNlIHhsaW5rOmhyZWY9IiNTVkdJRF81XyIgc3R5bGU9Im92ZXJmbG93OnZpc2libGUiIGlkPSJ1c2U1ODY3MiIgeD0iMCIgeT0iMCIgd2lkdGg9IjEwMCUiIGhlaWdodD0iMTAwJSIvPiYjeGE7CQk8L2NsaXBQYXRoPiYjeGE7CQk8cGF0aCBzdHlsZT0iZmlsbDojNWE3YTk0IiBkPSJtIDM0NS44OCwyMTcuMSBjIC0yLjY5LDAuOTYgLTUuNTEsMS4zOCAtOC4zOCwxLjMyIC0yLjg3LDAuMDYgLTUuNjksLTAuMzYgLTguMzgsLTEuMzIgLTEuNzQsLTAuNzIgLTIuODEsLTEuNjIgLTIuODEsLTIuNTIgMCwtMS41NiAzLjk1LC0zLjc3IDExLjIsLTMuNzcgNy4zLDAgMTEuMjYsMi4yMiAxMS4yNiwzLjc3IC0wLjAxLDAuOTEgLTEuMDksMS44MSAtMi44OSwyLjUyIHogbSAyLjg4LDEzLjEyIGMgMCwwLjkgLTEuMDgsMS44IC0yLjg3LDIuNDYgLTIuNjksMC45NiAtNS41MSwxLjM4IC04LjM4LDEuMzIgLTIuODcsMC4wNiAtNS42OSwtMC4zNiAtOC4zOCwtMS4zMiAtMS43NCwtMC42NiAtMi44MSwtMS42MiAtMi44MSwtMi40NiB2IC00LjAxIGMgMS4zMiwwLjc4IDIuNjksMS4zOCA0LjEzLDEuNjggMi4zMywwLjU0IDQuNjcsMC44NCA3LjA2LDAuNzggNC45MSwwIDguOTIsLTAuOSAxMS4yNiwtMi41OCB2IDQuMTMgeiBtIDAsNy44NSBjIDAsMC45IC0xLjA4LDEuOCAtMi44NywyLjUyIC0yLjY5LDAuOSAtNS41MSwxLjMyIC04LjM4LDEuMjYgLTIuODcsMC4wNiAtNS42OSwtMC4zNiAtOC4zOCwtMS4yNiAtMS43NCwtMC43MiAtMi44MSwtMS42OCAtMi44MSwtMi41MiBWIDIzNCBjIDEuMjYsMC44NCAyLjY5LDEuNDQgNC4xMywxLjggMi4zMywwLjU0IDQuNjcsMC44NCA3LjA2LDAuNzggMi4zOSwwLjA2IDQuNzksLTAuMjQgNy4xMiwtMC43OCAxLjUsLTAuMzYgMi45MywtMC45NiA0LjE5LC0xLjggdiA0LjA3IHogbSAxLjE5LC0yNi4xMiBjIC0wLjc4LC0wLjg0IC0xLjc0LC0xLjUgLTIuODEsLTEuOTIgLTMuMDUsLTEuMiAtNi4zNSwtMS43NCAtOS42NCwtMS42OCAtMy4yOSwtMC4wNiAtNi41OSwwLjQ4IC05LjY0LDEuNjggLTEuMDgsMC40MiAtMi4wNCwxLjA4IC0yLjc1LDEuOTIgLTAuNzIsMC43MiAtMS4wOCwxLjY4IC0xLjA4LDIuNjQgdiAyMy40MiBjIDAsMC45NiAwLjM2LDEuOTIgMS4wOCwyLjY0IDAuNzIsMC44NCAxLjY4LDEuNSAyLjc1LDEuOTIgMi4zOSwxLjE0IDUuNzUsMS43NCA5LjY0LDEuNzQgMy4yOSwwLjEyIDYuNTksLTAuNDIgOS42NCwtMS42MiAxLjA4LC0wLjQ4IDIuMDQsLTEuMTQgMi44MSwtMS45OCAwLjYsLTAuNzIgMS4wMiwtMS42MiAxLjAyLC0yLjY0IHYgLTIzLjQ4IGMgMCwtMC45NiAtMC4zNiwtMS45MiAtMS4wMiwtMi42NCB6IiBjbGlwLXBhdGg9InVybCgjU1ZHSURfNl8pIiBpZD0icGF0aDU4Njc1IiBpbmtzY2FwZTpjb25uZWN0b3ItY3VydmF0dXJlPSIwIi8+JiN4YTsJCTxwYXRoIHN0eWxlPSJmaWxsOiMwMDkyZDEiIGQ9Im0gMzQ4LjcsMjE0LjU5IGMgMCwwLjkgLTEuMDIsMS44IC0yLjg3LDIuNTIgLTIuNjksMC45NiAtNS41MSwxLjM4IC04LjM4LDEuMzIgLTIuODEsMC4wNiAtNS42MywtMC4zNiAtOC4zMiwtMS4zMiAtMS44LC0wLjcyIC0yLjgxLC0xLjYyIC0yLjgxLC0yLjUyIHYgMTEuNjIgYyAxLjI2LDAuNzggMi42MywxLjM4IDQuMTMsMS42OCAyLjI4LDAuNTQgNC42NywwLjg0IDcuMDEsMC43OCA0LjkxLDAgOC45OCwtMC45IDExLjI2LC0yLjU4IHYgLTExLjUgeiIgY2xpcC1wYXRoPSJ1cmwoI1NWR0lEXzZfKSIgaWQ9InBhdGg1ODY3NyIgaW5rc2NhcGU6Y29ubmVjdG9yLWN1cnZhdHVyZT0iMCIvPiYjeGE7CTwvZz4mI3hhOzwvZz4mI3hhOzwvc3ZnPg==;" vertex="1" parent="1">
          <mxGeometry x="490" y="613" width="60" height="80" as="geometry" />
        </mxCell>
        <mxCell id="-hulnyi_TNN2O9-WLHMJ-43" value="" style="outlineConnect=0;fontColor=#232F3E;gradientColor=none;fillColor=#5A30B5;strokeColor=none;dashed=0;verticalLabelPosition=bottom;verticalAlign=top;align=center;html=1;fontSize=12;fontStyle=0;aspect=fixed;pointerEvents=1;shape=mxgraph.aws4.application_load_balancer;" vertex="1" parent="1">
          <mxGeometry x="368.75" y="390" width="47" height="47" as="geometry" />
        </mxCell>
        <mxCell id="-hulnyi_TNN2O9-WLHMJ-44" value="" style="outlineConnect=0;fontColor=#232F3E;gradientColor=none;fillColor=#5A30B5;strokeColor=none;dashed=0;verticalLabelPosition=bottom;verticalAlign=top;align=center;html=1;fontSize=12;fontStyle=0;aspect=fixed;pointerEvents=1;shape=mxgraph.aws4.application_load_balancer;" vertex="1" parent="1">
          <mxGeometry x="118.75" y="390" width="47" height="47" as="geometry" />
        </mxCell>
        <mxCell id="-hulnyi_TNN2O9-WLHMJ-48" value="" style="aspect=fixed;html=1;points=[];align=center;image;fontSize=12;image=img/lib/mscae/Kubernetes.svg;" vertex="1" parent="1">
          <mxGeometry x="173.25" y="613" width="29.17" height="28" as="geometry" />
        </mxCell>
        <mxCell id="-hulnyi_TNN2O9-WLHMJ-53" value="" style="shape=image;verticalLabelPosition=bottom;labelBackgroundColor=#ffffff;verticalAlign=top;aspect=fixed;imageAspect=0;image=data:image/svg+xml,PHN2ZyB4bWxuczpkYz0iaHR0cDovL3B1cmwub3JnL2RjL2VsZW1lbnRzLzEuMS8iIHhtbG5zOmNjPSJodHRwOi8vY3JlYXRpdmVjb21tb25zLm9yZy9ucyMiIHhtbG5zOnJkZj0iaHR0cDovL3d3dy53My5vcmcvMTk5OS8wMi8yMi1yZGYtc3ludGF4LW5zIyIgeG1sbnM6c3ZnPSJodHRwOi8vd3d3LnczLm9yZy8yMDAwL3N2ZyIgeG1sbnM9Imh0dHA6Ly93d3cudzMub3JnLzIwMDAvc3ZnIiB4bWxuczp4bGluaz0iaHR0cDovL3d3dy53My5vcmcvMTk5OS94bGluayIgeG1sbnM6c29kaXBvZGk9Imh0dHA6Ly9zb2RpcG9kaS5zb3VyY2Vmb3JnZS5uZXQvRFREL3NvZGlwb2RpLTAuZHRkIiB4bWxuczppbmtzY2FwZT0iaHR0cDovL3d3dy5pbmtzY2FwZS5vcmcvbmFtZXNwYWNlcy9pbmtzY2FwZSIgdmVyc2lvbj0iMS4xIiBpZD0iTGF5ZXJfMSIgeD0iMHB4IiB5PSIwcHgiIHZpZXdCb3g9IjAgMCAyNi45NDAwMDEgMzUuOTY2MzYyIiB4bWw6c3BhY2U9InByZXNlcnZlIiBzb2RpcG9kaTpkb2NuYW1lPSJzYXBfc2VfbW9uZ29kYi5zdmciIHdpZHRoPSIyNi45NDAwMDEiIGhlaWdodD0iMzUuOTY2MzYyIiBpbmtzY2FwZTp2ZXJzaW9uPSIwLjkyLjMgKDI0MDU1NDYsIDIwMTgtMDMtMTEpIj48bWV0YWRhdGEgaWQ9Im1ldGFkYXRhNTg2ODgiPjxyZGY6UkRGPjxjYzpXb3JrIHJkZjphYm91dD0iIj48ZGM6Zm9ybWF0PmltYWdlL3N2Zyt4bWw8L2RjOmZvcm1hdD48ZGM6dHlwZSByZGY6cmVzb3VyY2U9Imh0dHA6Ly9wdXJsLm9yZy9kYy9kY21pdHlwZS9TdGlsbEltYWdlIi8+PGRjOnRpdGxlLz48L2NjOldvcms+PC9yZGY6UkRGPjwvbWV0YWRhdGE+PGRlZnMgaWQ9ImRlZnM1ODY4NiIvPjxzb2RpcG9kaTpuYW1lZHZpZXcgcGFnZWNvbG9yPSIjZmZmZmZmIiBib3JkZXJjb2xvcj0iIzY2NjY2NiIgYm9yZGVyb3BhY2l0eT0iMSIgb2JqZWN0dG9sZXJhbmNlPSIxMCIgZ3JpZHRvbGVyYW5jZT0iMTAiIGd1aWRldG9sZXJhbmNlPSIxMCIgaW5rc2NhcGU6cGFnZW9wYWNpdHk9IjAiIGlua3NjYXBlOnBhZ2VzaGFkb3c9IjIiIGlua3NjYXBlOndpbmRvdy13aWR0aD0iMTkyMCIgaW5rc2NhcGU6d2luZG93LWhlaWdodD0iMTAxNyIgaWQ9Im5hbWVkdmlldzU4Njg0IiBzaG93Z3JpZD0iZmFsc2UiIGZpdC1tYXJnaW4tdG9wPSIwIiBmaXQtbWFyZ2luLWxlZnQ9IjAiIGZpdC1tYXJnaW4tcmlnaHQ9IjAiIGZpdC1tYXJnaW4tYm90dG9tPSIwIiBpbmtzY2FwZTp6b29tPSIxLjAzMDMwMyIgaW5rc2NhcGU6Y3g9Ii0yNi42NTUiIGlua3NjYXBlOmN5PSItMTc2LjQyMzY0IiBpbmtzY2FwZTp3aW5kb3cteD0iLTgiIGlua3NjYXBlOndpbmRvdy15PSItOCIgaW5rc2NhcGU6d2luZG93LW1heGltaXplZD0iMSIgaW5rc2NhcGU6Y3VycmVudC1sYXllcj0iTGF5ZXJfMSIvPiYjeGE7JiN4YTs8ZyBpZD0iZzU4NjgxIiB0cmFuc2Zvcm09InRyYW5zbGF0ZSgtMzI0LjAzLC0yMDguMzYpIj4mI3hhOwk8ZGVmcyBpZD0iZGVmczU4NjY0Ij4mI3hhOwkJPHJlY3QgaWQ9IlNWR0lEXzNfIiB4PSIzMjQuMDMiIHk9IjIwOC4zNiIgd2lkdGg9IjI4LjMyIiBoZWlnaHQ9IjM2LjgyIi8+JiN4YTsJPC9kZWZzPiYjeGE7CTxjbGlwUGF0aCBpZD0iU1ZHSURfNF8iPiYjeGE7CQk8dXNlIHhsaW5rOmhyZWY9IiNTVkdJRF8zXyIgc3R5bGU9Im92ZXJmbG93OnZpc2libGUiIGlkPSJ1c2U1ODY2NiIgeD0iMCIgeT0iMCIgd2lkdGg9IjEwMCUiIGhlaWdodD0iMTAwJSIvPiYjeGE7CTwvY2xpcFBhdGg+JiN4YTsJPGcgY2xpcC1wYXRoPSJ1cmwoI1NWR0lEXzRfKSIgaWQ9Imc1ODY3OSI+JiN4YTsJCTxkZWZzIGlkPSJkZWZzNTg2NzAiPiYjeGE7CQkJPHJlY3QgaWQ9IlNWR0lEXzVfIiB4PSIzMjQuMDMiIHk9IjIwOC4zNiIgd2lkdGg9IjI4LjMyIiBoZWlnaHQ9IjM2LjgyIi8+JiN4YTsJCTwvZGVmcz4mI3hhOwkJPGNsaXBQYXRoIGlkPSJTVkdJRF82XyI+JiN4YTsJCQk8dXNlIHhsaW5rOmhyZWY9IiNTVkdJRF81XyIgc3R5bGU9Im92ZXJmbG93OnZpc2libGUiIGlkPSJ1c2U1ODY3MiIgeD0iMCIgeT0iMCIgd2lkdGg9IjEwMCUiIGhlaWdodD0iMTAwJSIvPiYjeGE7CQk8L2NsaXBQYXRoPiYjeGE7CQk8cGF0aCBzdHlsZT0iZmlsbDojNWE3YTk0IiBkPSJtIDM0NS44OCwyMTcuMSBjIC0yLjY5LDAuOTYgLTUuNTEsMS4zOCAtOC4zOCwxLjMyIC0yLjg3LDAuMDYgLTUuNjksLTAuMzYgLTguMzgsLTEuMzIgLTEuNzQsLTAuNzIgLTIuODEsLTEuNjIgLTIuODEsLTIuNTIgMCwtMS41NiAzLjk1LC0zLjc3IDExLjIsLTMuNzcgNy4zLDAgMTEuMjYsMi4yMiAxMS4yNiwzLjc3IC0wLjAxLDAuOTEgLTEuMDksMS44MSAtMi44OSwyLjUyIHogbSAyLjg4LDEzLjEyIGMgMCwwLjkgLTEuMDgsMS44IC0yLjg3LDIuNDYgLTIuNjksMC45NiAtNS41MSwxLjM4IC04LjM4LDEuMzIgLTIuODcsMC4wNiAtNS42OSwtMC4zNiAtOC4zOCwtMS4zMiAtMS43NCwtMC42NiAtMi44MSwtMS42MiAtMi44MSwtMi40NiB2IC00LjAxIGMgMS4zMiwwLjc4IDIuNjksMS4zOCA0LjEzLDEuNjggMi4zMywwLjU0IDQuNjcsMC44NCA3LjA2LDAuNzggNC45MSwwIDguOTIsLTAuOSAxMS4yNiwtMi41OCB2IDQuMTMgeiBtIDAsNy44NSBjIDAsMC45IC0xLjA4LDEuOCAtMi44NywyLjUyIC0yLjY5LDAuOSAtNS41MSwxLjMyIC04LjM4LDEuMjYgLTIuODcsMC4wNiAtNS42OSwtMC4zNiAtOC4zOCwtMS4yNiAtMS43NCwtMC43MiAtMi44MSwtMS42OCAtMi44MSwtMi41MiBWIDIzNCBjIDEuMjYsMC44NCAyLjY5LDEuNDQgNC4xMywxLjggMi4zMywwLjU0IDQuNjcsMC44NCA3LjA2LDAuNzggMi4zOSwwLjA2IDQuNzksLTAuMjQgNy4xMiwtMC43OCAxLjUsLTAuMzYgMi45MywtMC45NiA0LjE5LC0xLjggdiA0LjA3IHogbSAxLjE5LC0yNi4xMiBjIC0wLjc4LC0wLjg0IC0xLjc0LC0xLjUgLTIuODEsLTEuOTIgLTMuMDUsLTEuMiAtNi4zNSwtMS43NCAtOS42NCwtMS42OCAtMy4yOSwtMC4wNiAtNi41OSwwLjQ4IC05LjY0LDEuNjggLTEuMDgsMC40MiAtMi4wNCwxLjA4IC0yLjc1LDEuOTIgLTAuNzIsMC43MiAtMS4wOCwxLjY4IC0xLjA4LDIuNjQgdiAyMy40MiBjIDAsMC45NiAwLjM2LDEuOTIgMS4wOCwyLjY0IDAuNzIsMC44NCAxLjY4LDEuNSAyLjc1LDEuOTIgMi4zOSwxLjE0IDUuNzUsMS43NCA5LjY0LDEuNzQgMy4yOSwwLjEyIDYuNTksLTAuNDIgOS42NCwtMS42MiAxLjA4LC0wLjQ4IDIuMDQsLTEuMTQgMi44MSwtMS45OCAwLjYsLTAuNzIgMS4wMiwtMS42MiAxLjAyLC0yLjY0IHYgLTIzLjQ4IGMgMCwtMC45NiAtMC4zNiwtMS45MiAtMS4wMiwtMi42NCB6IiBjbGlwLXBhdGg9InVybCgjU1ZHSURfNl8pIiBpZD0icGF0aDU4Njc1IiBpbmtzY2FwZTpjb25uZWN0b3ItY3VydmF0dXJlPSIwIi8+JiN4YTsJCTxwYXRoIHN0eWxlPSJmaWxsOiMwMDkyZDEiIGQ9Im0gMzQ4LjcsMjE0LjU5IGMgMCwwLjkgLTEuMDIsMS44IC0yLjg3LDIuNTIgLTIuNjksMC45NiAtNS41MSwxLjM4IC04LjM4LDEuMzIgLTIuODEsMC4wNiAtNS42MywtMC4zNiAtOC4zMiwtMS4zMiAtMS44LC0wLjcyIC0yLjgxLC0xLjYyIC0yLjgxLC0yLjUyIHYgMTEuNjIgYyAxLjI2LDAuNzggMi42MywxLjM4IDQuMTMsMS42OCAyLjI4LDAuNTQgNC42NywwLjg0IDcuMDEsMC43OCA0LjkxLDAgOC45OCwtMC45IDExLjI2LC0yLjU4IHYgLTExLjUgeiIgY2xpcC1wYXRoPSJ1cmwoI1NWR0lEXzZfKSIgaWQ9InBhdGg1ODY3NyIgaW5rc2NhcGU6Y29ubmVjdG9yLWN1cnZhdHVyZT0iMCIvPiYjeGE7CTwvZz4mI3hhOzwvZz4mI3hhOzwvc3ZnPg==;" vertex="1" parent="1">
          <mxGeometry x="54" y="463" width="22.5" height="30" as="geometry" />
        </mxCell>
        <mxCell id="-hulnyi_TNN2O9-WLHMJ-59" value="" style="shape=image;verticalLabelPosition=bottom;labelBackgroundColor=#ffffff;verticalAlign=top;aspect=fixed;imageAspect=0;image=data:image/svg+xml,PHN2ZyB4bWxuczpjYz0iaHR0cDovL2NyZWF0aXZlY29tbW9ucy5vcmcvbnMjIiB4bWxuczpkYz0iaHR0cDovL3B1cmwub3JnL2RjL2VsZW1lbnRzLzEuMS8iIHhtbG5zOmlua3NjYXBlPSJodHRwOi8vd3d3Lmlua3NjYXBlLm9yZy9uYW1lc3BhY2VzL2lua3NjYXBlIiB4bWxuczpyZGY9Imh0dHA6Ly93d3cudzMub3JnLzE5OTkvMDIvMjItcmRmLXN5bnRheC1ucyMiIHhtbG5zOnNvZGlwb2RpPSJodHRwOi8vc29kaXBvZGkuc291cmNlZm9yZ2UubmV0L0RURC9zb2RpcG9kaS0wLmR0ZCIgeG1sbnM6c3ZnPSJodHRwOi8vd3d3LnczLm9yZy8yMDAwL3N2ZyIgeG1sbnM9Imh0dHA6Ly93d3cudzMub3JnLzIwMDAvc3ZnIiB4bWxuczp4bGluaz0iaHR0cDovL3d3dy53My5vcmcvMTk5OS94bGluayIgdmVyc2lvbj0iMS4xIiBpZD0ic3ZnNjg3MjMiIGlua3NjYXBlOnZlcnNpb249IjAuOTIuMyAoMjQwNTU0NiwgMjAxOC0wMy0xMSkiIHNvZGlwb2RpOmRvY25hbWU9ImtleV92YXVsdC5zdmciIHg9IjBweCIgeT0iMHB4IiB2aWV3Qm94PSIwIDAgMzQuNjIgMzguNTYiIHN0eWxlPSJlbmFibGUtYmFja2dyb3VuZDpuZXcgMCAwIDM0LjYyIDM4LjU2OyIgeG1sOnNwYWNlPSJwcmVzZXJ2ZSI+JiN4YTs8c29kaXBvZGk6bmFtZWR2aWV3IGJvcmRlcmNvbG9yPSIjNjY2NjY2IiBib3JkZXJvcGFjaXR5PSIxIiBmaXQtbWFyZ2luLWJvdHRvbT0iMCIgZml0LW1hcmdpbi1sZWZ0PSIwIiBmaXQtbWFyZ2luLXJpZ2h0PSIwIiBmaXQtbWFyZ2luLXRvcD0iMCIgZ3JpZHRvbGVyYW5jZT0iMTAiIGd1aWRldG9sZXJhbmNlPSIxMCIgaWQ9Im5hbWVkdmlldzY4NzI1IiBpbmtzY2FwZTpjdXJyZW50LWxheWVyPSJzdmc2ODcyMyIgaW5rc2NhcGU6Y3g9IjM1LjUzNzc2IiBpbmtzY2FwZTpjeT0iLTIzLjg1ODA4IiBpbmtzY2FwZTpwYWdlb3BhY2l0eT0iMCIgaW5rc2NhcGU6cGFnZXNoYWRvdz0iMiIgaW5rc2NhcGU6d2luZG93LWhlaWdodD0iMTAxNyIgaW5rc2NhcGU6d2luZG93LW1heGltaXplZD0iMSIgaW5rc2NhcGU6d2luZG93LXdpZHRoPSIxOTIwIiBpbmtzY2FwZTp3aW5kb3cteD0iLTgiIGlua3NjYXBlOndpbmRvdy15PSItOCIgaW5rc2NhcGU6em9vbT0iMi43NTEzMzA1IiBvYmplY3R0b2xlcmFuY2U9IjEwIiBwYWdlY29sb3I9IiNmZmZmZmYiIHNob3dncmlkPSJmYWxzZSI+JiN4YTsJPC9zb2RpcG9kaTpuYW1lZHZpZXc+JiN4YTs8ZyBpZD0iZzY4NzIxIiB0cmFuc2Zvcm09InRyYW5zbGF0ZSgtMTguNTYyNTk2LC0wLjk2Njg2KSI+JiN4YTsJPHRpdGxlIGlkPSJ0aXRsZTY4NzA2Ij5QYWdlLTE8L3RpdGxlPiYjeGE7CTxnIGlkPSJncm91cDQ0OTktMSIgdHJhbnNmb3JtPSJ0cmFuc2xhdGUoMTguNTYyNSwtNDQuMDI5NSkiPiYjeGE7CQk8dGl0bGUgaWQ9InRpdGxlNjg3MDgiPktleSBWYXVsdDwvdGl0bGU+JiN4YTsJCTxnIGlkPSJzaGFwZTQ1MDAtMiI+JiN4YTsJCQk8dGl0bGUgaWQ9InRpdGxlNjg3MTAiPlNoZWV0LjQ1MDA8L3RpdGxlPiYjeGE7CQkJPHBhdGggaWQ9InBhdGg2ODcxMiIgaW5rc2NhcGU6Y29ubmVjdG9yLWN1cnZhdHVyZT0iMCIgc3R5bGU9ImZpbGw6IzNGNTc2NTsiIGQ9Ik0zNC42Miw2Ni4zM2MwLTUuNjQtMi43MS0xMC41OS02LjgtMTMuNzYgICAgIGMwLDAuMTYsMCwwLjM5LDAsMC41NGMwLDEuNy0wLjQ3LDMuMzMtMS4xNiw0LjcyYzIuMDEsMi4yNCwzLjI0LDUuMTcsMy4yNCw4LjQyYzAsNi45NS01LjY0LDEyLjYtMTIuNTksMTIuNiAgICAgYy02Ljk2LDAtMTIuNi01LjY1LTEyLjYtMTIuNmMwLTMuNDgsMS4zOS02LjU3LDMuNjQtOC44OWMtMC42Mi0xLjMxLTEuMDEtMi43OC0xLjAxLTQuMzJjMC0wLjMxLDAtMC43LDAuMDgtMS4wMSAgICAgQzIuOTQsNTUuMTIsMCw2MC4zOCwwLDY2LjI1YzAsOS41OCw3LjczLDE3LjMxLDE3LjMxLDE3LjMxUzM0LjYyLDc1LjkxLDM0LjYyLDY2LjMzeiIvPiYjeGE7CQk8L2c+JiN4YTsJCTxnIGlkPSJzaGFwZTQ1MDEtNCIgdHJhbnNmb3JtPSJ0cmFuc2xhdGUoOS41ODE4MiwtOC4xMTM2NCkiPiYjeGE7CQkJPHRpdGxlIGlkPSJ0aXRsZTY4NzE1Ij5TaGVldC40NTAxPC90aXRsZT4mI3hhOwkJCTxwYXRoIGlkPSJwYXRoNjg3MTciIGlua3NjYXBlOmNvbm5lY3Rvci1jdXJ2YXR1cmU9IjAiIHN0eWxlPSJmaWxsOiMzRjU3NjU7IiBkPSJNNy45Niw1My4xMUMzLjU1LDUzLjExLDAsNTYuNjcsMCw2MS4wNyAgICAgYzAsMy42MywyLjQsNi42NSw1LjcyLDcuNjV2Ny44OEgyLjAxdjQuMDJoMy43MXYyLjk0aDQuNFY2OC43MmMzLjMzLTAuOTIsNS43Mi00LjAyLDUuNzItNy42NSAgICAgQzE1LjkyLDU2LjY3LDEyLjM2LDUzLjExLDcuOTYsNTMuMTF6IE03Ljk2LDU3LjI5YzIuMDksMCwzLjc5LDEuNywzLjc5LDMuNzhjMCwyLjA5LTEuNywzLjc5LTMuNzksMy43OXMtMy43OS0xLjctMy43OS0zLjc5ICAgICBDNC4xNyw1OC45OSw1Ljg3LDU3LjI5LDcuOTYsNTcuMjl6Ii8+JiN4YTsJCTwvZz4mI3hhOwk8L2c+JiN4YTs8L2c+JiN4YTs8L3N2Zz4=;" vertex="1" parent="1">
          <mxGeometry x="550" y="410" width="35" height="39" as="geometry" />
        </mxCell>
        <mxCell id="-hulnyi_TNN2O9-WLHMJ-61" value="" style="shape=image;verticalLabelPosition=bottom;labelBackgroundColor=#ffffff;verticalAlign=top;aspect=fixed;imageAspect=0;image=data:image/svg+xml,PHN2ZyB4bWxuczpjYz0iaHR0cDovL2NyZWF0aXZlY29tbW9ucy5vcmcvbnMjIiB4bWxuczpkYz0iaHR0cDovL3B1cmwub3JnL2RjL2VsZW1lbnRzLzEuMS8iIHhtbG5zOmlua3NjYXBlPSJodHRwOi8vd3d3Lmlua3NjYXBlLm9yZy9uYW1lc3BhY2VzL2lua3NjYXBlIiB4bWxuczpyZGY9Imh0dHA6Ly93d3cudzMub3JnLzE5OTkvMDIvMjItcmRmLXN5bnRheC1ucyMiIHhtbG5zOnNvZGlwb2RpPSJodHRwOi8vc29kaXBvZGkuc291cmNlZm9yZ2UubmV0L0RURC9zb2RpcG9kaS0wLmR0ZCIgeG1sbnM6c3ZnPSJodHRwOi8vd3d3LnczLm9yZy8yMDAwL3N2ZyIgeG1sbnM9Imh0dHA6Ly93d3cudzMub3JnLzIwMDAvc3ZnIiB4bWxuczp4bGluaz0iaHR0cDovL3d3dy53My5vcmcvMTk5OS94bGluayIgdmVyc2lvbj0iMS4xIiBpZD0ic3ZnMTAyMTA3IiBpbmtzY2FwZTp2ZXJzaW9uPSIwLjkyLjMgKDI0MDU1NDYsIDIwMTgtMDMtMTEpIiBzb2RpcG9kaTpkb2NuYW1lPSJteXNxbF8yLnN2ZyIgeD0iMHB4IiB5PSIwcHgiIHZpZXdCb3g9IjAgMCA1Mi44OCA2MC4wNyIgc3R5bGU9ImVuYWJsZS1iYWNrZ3JvdW5kOm5ldyAwIDAgNTIuODggNjAuMDc7IiB4bWw6c3BhY2U9InByZXNlcnZlIj4mI3hhOzxmaWx0ZXIgaWQ9ImZpbHRlcl8yIj4mI3hhOwk8ZmVHYXVzc2lhbkJsdXIgaWQ9ImZlR2F1c3NpYW5CbHVyMTAyMDc1IiBzdGREZXZpYXRpb249IjIiLz4mI3hhOzwvZmlsdGVyPiYjeGE7PHNvZGlwb2RpOm5hbWVkdmlldyBib3JkZXJjb2xvcj0iIzY2NjY2NiIgYm9yZGVyb3BhY2l0eT0iMSIgZml0LW1hcmdpbi1ib3R0b209IjAiIGZpdC1tYXJnaW4tbGVmdD0iMCIgZml0LW1hcmdpbi1yaWdodD0iMCIgZml0LW1hcmdpbi10b3A9IjAiIGdyaWR0b2xlcmFuY2U9IjEwIiBndWlkZXRvbGVyYW5jZT0iMTAiIGlkPSJuYW1lZHZpZXcxMDIxMDkiIGlua3NjYXBlOmN1cnJlbnQtbGF5ZXI9InN2ZzEwMjEwNyIgaW5rc2NhcGU6Y3g9IjM1LjI1IiBpbmtzY2FwZTpjeT0iNDAuMDQ1MjAxIiBpbmtzY2FwZTpwYWdlb3BhY2l0eT0iMCIgaW5rc2NhcGU6cGFnZXNoYWRvdz0iMiIgaW5rc2NhcGU6d2luZG93LWhlaWdodD0iMTAxNyIgaW5rc2NhcGU6d2luZG93LW1heGltaXplZD0iMSIgaW5rc2NhcGU6d2luZG93LXdpZHRoPSIxOTIwIiBpbmtzY2FwZTp3aW5kb3cteD0iLTgiIGlua3NjYXBlOndpbmRvdy15PSItOCIgaW5rc2NhcGU6em9vbT0iMTAuODI0NDc2IiBvYmplY3R0b2xlcmFuY2U9IjEwIiBwYWdlY29sb3I9IiNmZmZmZmYiIHNob3dncmlkPSJmYWxzZSI+JiN4YTsJPC9zb2RpcG9kaTpuYW1lZHZpZXc+JiN4YTs8ZyBpZD0iZzEwMjEwNSI+JiN4YTsJPHRpdGxlIGlkPSJ0aXRsZTEwMjA3OSI+UGFnZS0xPC90aXRsZT4mI3hhOwk8ZyBpZD0iZ3JvdXAzNjM3LTEiPiYjeGE7CQk8dGl0bGUgaWQ9InRpdGxlMTAyMDgxIj5NeVNRTCAjMjwvdGl0bGU+JiN4YTsJCTxnIGlkPSJzaGFwZTM2MzgtMiI+JiN4YTsJCQk8dGl0bGUgaWQ9InRpdGxlMTAyMDgzIj5EYXRhYmFzZSAjMjwvdGl0bGU+JiN4YTsJCQk8cGF0aCBpZD0icGF0aDEwMjA4NSIgaW5rc2NhcGU6Y29ubmVjdG9yLWN1cnZhdHVyZT0iMCIgc3R5bGU9ImZpbGw6IzNGNTc2NTsiIGQ9Ik0yNi43MSwwYzE0LjY0LDAsMjYuMTcsMy45MywyNi4xNyw4LjMxICAgICBjMCw0My41NCwwLDQzLjU0LDAsNDMuNTRjMCw0LjgzLTExLjUzLDguMjItMjYuMTcsOC4yMkMxMi4xNSw2MC4wNywwLDU2LjY4LDAsNTEuODVDMCw4LjMxLDAsOC4zMSwwLDguMzEgICAgIEMwLDMuOTMsMTIuMTUsMCwyNi43MSwweiBNMjYuNzEsMTQuMjFjMTIuNTksMCwyMi42OC0yLjk1LDIyLjY4LTUuOWMwLTIuODYtMTAuMDktNS4zNi0yMi42OC01LjM2Yy0xMi42LDAtMjIuNiwyLjUtMjIuNiw1LjM2ICAgICBDNC4xMSwxMS4yNiwxNC4xMSwxNC4yMSwyNi43MSwxNC4yMXoiLz4mI3hhOwkJPC9nPiYjeGE7CQk8ZyBpZD0ic2hhcGUzNjM5LTQiIHRyYW5zZm9ybT0idHJhbnNsYXRlKDEwLjU4OTIsLTcuMjMwNDkpIj4mI3hhOwkJCTx0aXRsZSBpZD0idGl0bGUxMDIwODgiPlNoZWV0LjM2Mzk8L3RpdGxlPiYjeGE7CQkJPGcgaWQ9InNoYWRvdzM2MzktNSIgdHJhbnNmb3JtPSJ0cmFuc2xhdGUoMC4zNDU2LDEuOTcyOCkiPiYjeGE7CQkJCTxnIGlkPSJwYXRoMTAyMDkwIiBpbmtzY2FwZTpjb25uZWN0b3ItY3VydmF0dXJlPSIwIiBzdHlsZT0iZmlsdGVyOnVybCgjZmlsdGVyXzIpOyI+JiN4YTsJCQkJCTxwYXRoIHN0eWxlPSJvcGFjaXR5OjAuMjI7ZmlsbDojNUI5QkQ1OyIgZD0iTTMyLjY3LDUyLjMyYy0xLjkxLTAuMDUtMy4zNiwwLjEzLTQuNjEsMC42NWMtMC4zNSwwLjE1LTAuOTIsMC4xNS0wLjk3LDAuNiAgICAgICBjMC4xOSwwLjIsMC4yMiwwLjUxLDAuMzgsMC43NmMwLjI5LDAuNDgsMC43OSwxLjEyLDEuMjQsMS40NmMwLjQ5LDAuMzcsMSwwLjc2LDEuNTIsMS4wOGMwLjkzLDAuNTcsMS45NywwLjksMi44NywxLjQ3ICAgICAgIGMwLjUzLDAuMzMsMS4wNiwwLjc2LDEuNTcsMS4xNGMwLjI2LDAuMTgsMC40MywwLjQ3LDAuNzYsMC41OWMwLTAuMDIsMC0wLjAzLDAtMC4wNWMtMC4xNy0wLjIyLTAuMjItMC41My0wLjM4LTAuNzYgICAgICAgYy0wLjIzLTAuMjQtMC40Ny0wLjQ3LTAuNy0wLjcxYy0wLjY5LTAuOTEtMS41Ni0xLjcxLTIuNDktMi4zOGMtMC43NS0wLjUzLTIuNC0xLjI1LTIuNzEtMi4xMWMtMC4wMi0wLjAyLTAuMDQtMC4wNC0wLjA2LTAuMDYgICAgICAgYzAuNTMtMC4wNiwxLjE0LTAuMjUsMS42My0wLjM4YzAuODEtMC4yMiwxLjU0LTAuMTYsMi4zOC0wLjM4YzAuMzgtMC4xMSwwLjc2LTAuMjEsMS4xNC0wLjMyYzAtMC4wNywwLTAuMTUsMC0wLjIyICAgICAgIGMtMC40Mi0wLjQ0LTAuNzMtMS4wMS0xLjE5LTEuNDFjLTEuMjItMS4wMy0yLjU0LTIuMDYtMy45LTIuOTNjLTAuNzYtMC40Ny0xLjctMC43OC0yLjUtMS4xOWMtMC4yNy0wLjEzLTAuNzQtMC4yLTAuOTItMC40MyAgICAgICBjLTAuNDItMC41NC0wLjY1LTEuMjItMC45Ny0xLjg0Yy0wLjY4LTEuMzEtMS4zNS0yLjc1LTEuOTYtNC4xMmMtMC40MS0wLjk0LTAuNjgtMS44Ny0xLjE5LTIuNzEgICAgICAgYy0yLjQ2LTQuMDUtNS4xMS02LjQ5LTkuMjEtOC44OWMtMC44OC0wLjUxLTEuOTMtMC43Mi0zLjA0LTAuOThjLTAuNTktMC4wNC0xLjE5LTAuMDctMS43OS0wLjExICAgICAgIGMtMC4zNi0wLjE1LTAuNzQtMC42LTEuMDgtMC44MWMtMS4zNi0wLjg2LTQuODUtMi43My01Ljg1LTAuMjdDMCwyOC41NiwxLjU5LDMwLjA3LDIuMTUsMzAuODZjMC40LDAuNTUsMC45MSwxLjE3LDEuMiwxLjc5ICAgICAgIGMwLjE4LDAuNCwwLjIyLDAuODEsMC4zOCwxLjI0YzAuMzksMS4wNiwwLjczLDIuMjIsMS4yNCwzLjJjMC4yNiwwLjUsMC41NCwxLjAyLDAuODcsMS40NmMwLjIsMC4yOCwwLjU0LDAuNCwwLjYsMC44MiAgICAgICBjLTAuMzQsMC40Ni0wLjM2LDEuMTktMC41NSwxLjc5Yy0wLjg0LDIuNjctMC41Miw1Ljk5LDAuNzEsNy45NmMwLjM4LDAuNjEsMS4yNywxLjkxLDIuNDksMS40MWMxLjA3LTAuNDMsMC44My0xLjc5LDEuMTQtMi45OCAgICAgICBjMC4wNy0wLjI3LDAuMDMtMC40NywwLjE2LTAuNjVjMCwwLjAyLDAsMC4wNCwwLDAuMDZjMC4zMywwLjY1LDAuNjUsMS4zLDAuOTgsMS45NWMwLjcyLDEuMTYsMiwyLjM3LDMuMDksMy4xOSAgICAgICBjMC41NiwwLjQzLDEsMS4xNywxLjczLDEuNDFjMC0wLjAxLDAtMC4wMywwLTAuMDVjLTAuMDIsMC0wLjAzLDAtMC4wNSwwYy0wLjE0LTAuMjItMC4zNi0wLjMxLTAuNTQtMC40OSAgICAgICBjLTAuNDMtMC40MS0wLjktMC45My0xLjI1LTEuNDFjLTAuOTktMS4zNC0xLjg2LTIuODEtMi42Ni00LjMzYy0wLjM4LTAuNzMtMC43MS0xLjU0LTEuMDMtMi4yOCAgICAgICBjLTAuMTItMC4yOS0wLjEyLTAuNzItMC4zOC0wLjg3Yy0wLjM1LDAuNTUtMC44NiwwLjk5LTEuMTMsMS42M2MtMC40NCwxLjAzLTAuNDksMi4yOC0wLjY1LDMuNTggICAgICAgYy0wLjEsMC4wMy0wLjA2LDAuMDEtMC4xMSwwLjA1Yy0wLjc2LTAuMTgtMS4wMi0wLjk2LTEuMy0xLjYzYy0wLjcxLTEuNjgtMC44NS00LjQtMC4yMi02LjM0YzAuMTYtMC41LDAuODktMi4wOCwwLjU5LTIuNTUgICAgICAgYy0wLjE0LTAuNDYtMC42LTAuNzMtMC44Ni0xLjA4Yy0wLjMyLTAuNDQtMC42NS0xLjAxLTAuODctMS41MmMtMC41OC0xLjMxLTAuODUtMi43OS0xLjQ2LTQuMTJjLTAuMy0wLjYzLTAuNzktMS4yNy0xLjItMS44NCAgICAgICBjLTAuNDQtMC42My0wLjk1LTEuMDktMS4zLTEuODRjLTAuMTItMC4yNy0wLjI5LTAuNy0wLjEtMC45OGMwLjA1LTAuMTgsMC4xNC0wLjI2LDAuMzItMC4zMmMwLjMyLTAuMjUsMS4xOSwwLjA4LDEuNTIsMC4yMSAgICAgICBjMC44NywwLjM2LDEuNTksMC43MSwyLjMzLDEuMmMwLjM1LDAuMjMsMC43MSwwLjY4LDEuMTQsMC44MWMwLjE2LDAsMC4zMiwwLDAuNDgsMGMwLjc3LDAuMTcsMS42MiwwLjA1LDIuMzQsMC4yNyAgICAgICBjMS4yNiwwLjM4LDIuMzgsMC45OCwzLjQxLDEuNjNjMy4xMiwxLjk3LDUuNjgsNC43OCw3LjQzLDguMTNjMC4yOCwwLjU0LDAuNCwxLjA1LDAuNjUsMS42MmMwLjUsMS4xNiwxLjEzLDIuMzQsMS42MiwzLjQ3ICAgICAgIGMwLjUsMS4xMywwLjk4LDIuMjYsMS42OCwzLjJjMC4zNywwLjQ5LDEuOCwwLjc2LDIuNDQsMS4wM2MwLjQ2LDAuMTksMS4yLDAuMzksMS42MywwLjY1YzAuODIsMC40OSwxLjYxLDEuMDgsMi4zOCwxLjYzICAgICAgIEMzMS40Myw1MS4yNCwzMi42MSw1MS44MywzMi42Nyw1Mi4zMnoiLz4mI3hhOwkJCQk8L2c+JiN4YTsJCQk8L2c+JiN4YTsJCQk8cGF0aCBpZD0icGF0aDEwMjA5MyIgaW5rc2NhcGU6Y29ubmVjdG9yLWN1cnZhdHVyZT0iMCIgc3R5bGU9ImZpbGw6I0ZGRkZGRjsiIGQ9Ik0zMi42Nyw1Mi4zMmMtMS45MS0wLjA1LTMuMzYsMC4xMy00LjYxLDAuNjUgICAgIGMtMC4zNSwwLjE1LTAuOTIsMC4xNS0wLjk3LDAuNmMwLjE5LDAuMiwwLjIyLDAuNTEsMC4zOCwwLjc2YzAuMjksMC40OCwwLjc5LDEuMTIsMS4yNCwxLjQ2YzAuNDksMC4zNywxLDAuNzYsMS41MiwxLjA4ICAgICBjMC45MywwLjU3LDEuOTcsMC45LDIuODcsMS40N2MwLjUzLDAuMzMsMS4wNiwwLjc2LDEuNTcsMS4xNGMwLjI2LDAuMTgsMC40MywwLjQ3LDAuNzYsMC41OWMwLTAuMDIsMC0wLjAzLDAtMC4wNSAgICAgYy0wLjE3LTAuMjItMC4yMi0wLjUzLTAuMzgtMC43NmMtMC4yMy0wLjI0LTAuNDctMC40Ny0wLjctMC43MWMtMC42OS0wLjkxLTEuNTYtMS43MS0yLjQ5LTIuMzhjLTAuNzUtMC41My0yLjQtMS4yNS0yLjcxLTIuMTEgICAgIGMtMC4wMi0wLjAyLTAuMDQtMC4wNC0wLjA2LTAuMDZjMC41My0wLjA2LDEuMTQtMC4yNSwxLjYzLTAuMzhjMC44MS0wLjIyLDEuNTQtMC4xNiwyLjM4LTAuMzhjMC4zOC0wLjExLDAuNzYtMC4yMSwxLjE0LTAuMzIgICAgIGMwLTAuMDcsMC0wLjE1LDAtMC4yMmMtMC40Mi0wLjQ0LTAuNzMtMS4wMS0xLjE5LTEuNDFjLTEuMjItMS4wMy0yLjU0LTIuMDYtMy45LTIuOTNjLTAuNzYtMC40Ny0xLjctMC43OC0yLjUtMS4xOSAgICAgYy0wLjI3LTAuMTMtMC43NC0wLjItMC45Mi0wLjQzYy0wLjQyLTAuNTQtMC42NS0xLjIyLTAuOTctMS44NGMtMC42OC0xLjMxLTEuMzUtMi43NS0xLjk2LTQuMTJjLTAuNDEtMC45NC0wLjY4LTEuODctMS4xOS0yLjcxICAgICBjLTIuNDYtNC4wNS01LjExLTYuNDktOS4yMS04Ljg5Yy0wLjg4LTAuNTEtMS45My0wLjcyLTMuMDQtMC45OGMtMC41OS0wLjA0LTEuMTktMC4wNy0xLjc5LTAuMTFjLTAuMzYtMC4xNS0wLjc0LTAuNi0xLjA4LTAuODEgICAgIGMtMS4zNi0wLjg2LTQuODUtMi43My01Ljg1LTAuMjdDMCwyOC41NiwxLjU5LDMwLjA3LDIuMTUsMzAuODZjMC40LDAuNTUsMC45MSwxLjE3LDEuMiwxLjc5YzAuMTgsMC40LDAuMjIsMC44MSwwLjM4LDEuMjQgICAgIGMwLjM5LDEuMDYsMC43MywyLjIyLDEuMjQsMy4yYzAuMjYsMC41LDAuNTQsMS4wMiwwLjg3LDEuNDZjMC4yLDAuMjgsMC41NCwwLjQsMC42LDAuODJjLTAuMzQsMC40Ni0wLjM2LDEuMTktMC41NSwxLjc5ICAgICBjLTAuODQsMi42Ny0wLjUyLDUuOTksMC43MSw3Ljk2YzAuMzgsMC42MSwxLjI3LDEuOTEsMi40OSwxLjQxYzEuMDctMC40MywwLjgzLTEuNzksMS4xNC0yLjk4YzAuMDctMC4yNywwLjAzLTAuNDcsMC4xNi0wLjY1ICAgICBjMCwwLjAyLDAsMC4wNCwwLDAuMDZjMC4zMywwLjY1LDAuNjUsMS4zLDAuOTgsMS45NWMwLjcyLDEuMTYsMiwyLjM3LDMuMDksMy4xOWMwLjU2LDAuNDMsMSwxLjE3LDEuNzMsMS40MSAgICAgYzAtMC4wMSwwLTAuMDMsMC0wLjA1Yy0wLjAyLDAtMC4wMywwLTAuMDUsMGMtMC4xNC0wLjIyLTAuMzYtMC4zMS0wLjU0LTAuNDljLTAuNDMtMC40MS0wLjktMC45My0xLjI1LTEuNDEgICAgIGMtMC45OS0xLjM0LTEuODYtMi44MS0yLjY2LTQuMzNjLTAuMzgtMC43My0wLjcxLTEuNTQtMS4wMy0yLjI4Yy0wLjEyLTAuMjktMC4xMi0wLjcyLTAuMzgtMC44N2MtMC4zNSwwLjU1LTAuODYsMC45OS0xLjEzLDEuNjMgICAgIGMtMC40NCwxLjAzLTAuNDksMi4yOC0wLjY1LDMuNThjLTAuMSwwLjAzLTAuMDYsMC4wMS0wLjExLDAuMDVjLTAuNzYtMC4xOC0xLjAyLTAuOTYtMS4zLTEuNjNjLTAuNzEtMS42OC0wLjg1LTQuNC0wLjIyLTYuMzQgICAgIGMwLjE2LTAuNSwwLjg5LTIuMDgsMC41OS0yLjU1Yy0wLjE0LTAuNDYtMC42LTAuNzMtMC44Ni0xLjA4Yy0wLjMyLTAuNDQtMC42NS0xLjAxLTAuODctMS41MmMtMC41OC0xLjMxLTAuODUtMi43OS0xLjQ2LTQuMTIgICAgIGMtMC4zLTAuNjMtMC43OS0xLjI3LTEuMi0xLjg0Yy0wLjQ0LTAuNjMtMC45NS0xLjA5LTEuMy0xLjg0Yy0wLjEyLTAuMjctMC4yOS0wLjctMC4xLTAuOThjMC4wNS0wLjE4LDAuMTQtMC4yNiwwLjMyLTAuMzIgICAgIGMwLjMyLTAuMjUsMS4xOSwwLjA4LDEuNTIsMC4yMWMwLjg3LDAuMzYsMS41OSwwLjcxLDIuMzMsMS4yYzAuMzUsMC4yMywwLjcxLDAuNjgsMS4xNCwwLjgxYzAuMTYsMCwwLjMyLDAsMC40OCwwICAgICBjMC43NywwLjE3LDEuNjIsMC4wNSwyLjM0LDAuMjdjMS4yNiwwLjM4LDIuMzgsMC45OCwzLjQxLDEuNjNjMy4xMiwxLjk3LDUuNjgsNC43OCw3LjQzLDguMTNjMC4yOCwwLjU0LDAuNCwxLjA1LDAuNjUsMS42MiAgICAgYzAuNSwxLjE2LDEuMTMsMi4zNCwxLjYyLDMuNDdjMC41LDEuMTMsMC45OCwyLjI2LDEuNjgsMy4yYzAuMzcsMC40OSwxLjgsMC43NiwyLjQ0LDEuMDNjMC40NiwwLjE5LDEuMiwwLjM5LDEuNjMsMC42NSAgICAgYzAuODIsMC40OSwxLjYxLDEuMDgsMi4zOCwxLjYzQzMxLjQzLDUxLjI0LDMyLjYxLDUxLjgzLDMyLjY3LDUyLjMyeiIvPiYjeGE7CQk8L2c+JiN4YTsJCTxnIGlkPSJzaGFwZTM2NDAtOSIgdHJhbnNmb3JtPSJ0cmFuc2xhdGUoMTguMDU0MiwtMzMuMzU2NSkiPiYjeGE7CQkJPHRpdGxlIGlkPSJ0aXRsZTEwMjA5NiI+U2hlZXQuMzY0MDwvdGl0bGU+JiN4YTsJCQk8ZyBpZD0ic2hhZG93MzY0MC0xMCIgdHJhbnNmb3JtPSJ0cmFuc2xhdGUoMC4zNDU2LDEuOTcyOCkiPiYjeGE7CQkJCTxnIGlkPSJwYXRoMTAyMDk4IiBpbmtzY2FwZTpjb25uZWN0b3ItY3VydmF0dXJlPSIwIiBzdHlsZT0iZmlsdGVyOnVybCgjZmlsdGVyXzIpOyI+JiN4YTsJCQkJCTxwYXRoIHN0eWxlPSJvcGFjaXR5OjAuMjI7ZmlsbDojNUI5QkQ1OyIgZD0iTTAuOTgsNTcuOEMwLjU4LDU3Ljc5LDAuMyw1Ny44NCwwLDU3LjljMCwwLjAyLDAsMC4wNCwwLDAuMDYgICAgICAgYzAuMDIsMCwwLjA0LDAsMC4wNSwwYzAuMTksMC4zOSwwLjUzLDAuNjQsMC43NiwwLjk3YzAuMTgsMC4zOCwwLjM2LDAuNzYsMC41NSwxLjE0YzAuMDEtMC4wMiwwLjAzLTAuMDMsMC4wNS0wLjA1ICAgICAgIGMwLjMzLTAuMjQsMC40OS0wLjYyLDAuNDktMS4xOWMtMC4xNC0wLjE1LTAuMTYtMC4zMi0wLjI3LTAuNDlDMS40Nyw1OC4xMSwxLjE3LDU3Ljk4LDAuOTgsNTcuOHoiLz4mI3hhOwkJCQk8L2c+JiN4YTsJCQk8L2c+JiN4YTsJCQk8cGF0aCBpZD0icGF0aDEwMjEwMSIgaW5rc2NhcGU6Y29ubmVjdG9yLWN1cnZhdHVyZT0iMCIgc3R5bGU9ImZpbGw6I0ZGRkZGRjsiIGQ9Ik0wLjk4LDU3LjhDMC41OCw1Ny43OSwwLjMsNTcuODQsMCw1Ny45ICAgICBjMCwwLjAyLDAsMC4wNCwwLDAuMDZjMC4wMiwwLDAuMDQsMCwwLjA1LDBjMC4xOSwwLjM5LDAuNTMsMC42NCwwLjc2LDAuOTdjMC4xOCwwLjM4LDAuMzYsMC43NiwwLjU1LDEuMTQgICAgIGMwLjAxLTAuMDIsMC4wMy0wLjAzLDAuMDUtMC4wNWMwLjMzLTAuMjQsMC40OS0wLjYyLDAuNDktMS4xOWMtMC4xNC0wLjE1LTAuMTYtMC4zMi0wLjI3LTAuNDlDMS40Nyw1OC4xMSwxLjE3LDU3Ljk4LDAuOTgsNTcuOHogICAgICIvPiYjeGE7CQk8L2c+JiN4YTsJPC9nPiYjeGE7PC9nPiYjeGE7PC9zdmc+;" vertex="1" parent="1">
          <mxGeometry x="360" y="466" width="23.85" height="27" as="geometry" />
        </mxCell>
        <mxCell id="-hulnyi_TNN2O9-WLHMJ-62" value="" style="shape=image;html=1;verticalAlign=top;verticalLabelPosition=bottom;labelBackgroundColor=#ffffff;imageAspect=0;aspect=fixed;image=https://cdn4.iconfinder.com/data/icons/logos-and-brands/512/97_Docker_logo_logos-128.png" vertex="1" parent="1">
          <mxGeometry x="462" y="383" width="28" height="28" as="geometry" />
        </mxCell>
        <mxCell id="-hulnyi_TNN2O9-WLHMJ-63" value="" style="outlineConnect=0;dashed=0;verticalLabelPosition=bottom;verticalAlign=top;align=center;html=1;shape=mxgraph.aws3.api_gateway;fillColor=#D9A741;gradientColor=none;" vertex="1" parent="1">
          <mxGeometry x="339.25" y="243.5" width="76.5" height="93" as="geometry" />
        </mxCell>
        <mxCell id="-hulnyi_TNN2O9-WLHMJ-64" value="" style="shape=image;verticalLabelPosition=bottom;labelBackgroundColor=#ffffff;verticalAlign=top;aspect=fixed;imageAspect=0;image=data:image/svg+xml,PHN2ZyB4bWxuczpkYz0iaHR0cDovL3B1cmwub3JnL2RjL2VsZW1lbnRzLzEuMS8iIHhtbG5zOmNjPSJodHRwOi8vY3JlYXRpdmVjb21tb25zLm9yZy9ucyMiIHhtbG5zOnJkZj0iaHR0cDovL3d3dy53My5vcmcvMTk5OS8wMi8yMi1yZGYtc3ludGF4LW5zIyIgeG1sbnM6c3ZnPSJodHRwOi8vd3d3LnczLm9yZy8yMDAwL3N2ZyIgeG1sbnM9Imh0dHA6Ly93d3cudzMub3JnLzIwMDAvc3ZnIiB4bWxuczp4bGluaz0iaHR0cDovL3d3dy53My5vcmcvMTk5OS94bGluayIgeG1sbnM6c29kaXBvZGk9Imh0dHA6Ly9zb2RpcG9kaS5zb3VyY2Vmb3JnZS5uZXQvRFREL3NvZGlwb2RpLTAuZHRkIiB4bWxuczppbmtzY2FwZT0iaHR0cDovL3d3dy5pbmtzY2FwZS5vcmcvbmFtZXNwYWNlcy9pbmtzY2FwZSIgdmVyc2lvbj0iMS4xIiBpZD0iTGF5ZXJfMSIgeD0iMHB4IiB5PSIwcHgiIHZpZXdCb3g9IjAgMCAyNi45NDAwMDEgMzUuOTY2MzYyIiB4bWw6c3BhY2U9InByZXNlcnZlIiBzb2RpcG9kaTpkb2NuYW1lPSJzYXBfc2VfbW9uZ29kYi5zdmciIHdpZHRoPSIyNi45NDAwMDEiIGhlaWdodD0iMzUuOTY2MzYyIiBpbmtzY2FwZTp2ZXJzaW9uPSIwLjkyLjMgKDI0MDU1NDYsIDIwMTgtMDMtMTEpIj48bWV0YWRhdGEgaWQ9Im1ldGFkYXRhNTg2ODgiPjxyZGY6UkRGPjxjYzpXb3JrIHJkZjphYm91dD0iIj48ZGM6Zm9ybWF0PmltYWdlL3N2Zyt4bWw8L2RjOmZvcm1hdD48ZGM6dHlwZSByZGY6cmVzb3VyY2U9Imh0dHA6Ly9wdXJsLm9yZy9kYy9kY21pdHlwZS9TdGlsbEltYWdlIi8+PGRjOnRpdGxlLz48L2NjOldvcms+PC9yZGY6UkRGPjwvbWV0YWRhdGE+PGRlZnMgaWQ9ImRlZnM1ODY4NiIvPjxzb2RpcG9kaTpuYW1lZHZpZXcgcGFnZWNvbG9yPSIjZmZmZmZmIiBib3JkZXJjb2xvcj0iIzY2NjY2NiIgYm9yZGVyb3BhY2l0eT0iMSIgb2JqZWN0dG9sZXJhbmNlPSIxMCIgZ3JpZHRvbGVyYW5jZT0iMTAiIGd1aWRldG9sZXJhbmNlPSIxMCIgaW5rc2NhcGU6cGFnZW9wYWNpdHk9IjAiIGlua3NjYXBlOnBhZ2VzaGFkb3c9IjIiIGlua3NjYXBlOndpbmRvdy13aWR0aD0iMTkyMCIgaW5rc2NhcGU6d2luZG93LWhlaWdodD0iMTAxNyIgaWQ9Im5hbWVkdmlldzU4Njg0IiBzaG93Z3JpZD0iZmFsc2UiIGZpdC1tYXJnaW4tdG9wPSIwIiBmaXQtbWFyZ2luLWxlZnQ9IjAiIGZpdC1tYXJnaW4tcmlnaHQ9IjAiIGZpdC1tYXJnaW4tYm90dG9tPSIwIiBpbmtzY2FwZTp6b29tPSIxLjAzMDMwMyIgaW5rc2NhcGU6Y3g9Ii0yNi42NTUiIGlua3NjYXBlOmN5PSItMTc2LjQyMzY0IiBpbmtzY2FwZTp3aW5kb3cteD0iLTgiIGlua3NjYXBlOndpbmRvdy15PSItOCIgaW5rc2NhcGU6d2luZG93LW1heGltaXplZD0iMSIgaW5rc2NhcGU6Y3VycmVudC1sYXllcj0iTGF5ZXJfMSIvPiYjeGE7JiN4YTs8ZyBpZD0iZzU4NjgxIiB0cmFuc2Zvcm09InRyYW5zbGF0ZSgtMzI0LjAzLC0yMDguMzYpIj4mI3hhOwk8ZGVmcyBpZD0iZGVmczU4NjY0Ij4mI3hhOwkJPHJlY3QgaWQ9IlNWR0lEXzNfIiB4PSIzMjQuMDMiIHk9IjIwOC4zNiIgd2lkdGg9IjI4LjMyIiBoZWlnaHQ9IjM2LjgyIi8+JiN4YTsJPC9kZWZzPiYjeGE7CTxjbGlwUGF0aCBpZD0iU1ZHSURfNF8iPiYjeGE7CQk8dXNlIHhsaW5rOmhyZWY9IiNTVkdJRF8zXyIgc3R5bGU9Im92ZXJmbG93OnZpc2libGUiIGlkPSJ1c2U1ODY2NiIgeD0iMCIgeT0iMCIgd2lkdGg9IjEwMCUiIGhlaWdodD0iMTAwJSIvPiYjeGE7CTwvY2xpcFBhdGg+JiN4YTsJPGcgY2xpcC1wYXRoPSJ1cmwoI1NWR0lEXzRfKSIgaWQ9Imc1ODY3OSI+JiN4YTsJCTxkZWZzIGlkPSJkZWZzNTg2NzAiPiYjeGE7CQkJPHJlY3QgaWQ9IlNWR0lEXzVfIiB4PSIzMjQuMDMiIHk9IjIwOC4zNiIgd2lkdGg9IjI4LjMyIiBoZWlnaHQ9IjM2LjgyIi8+JiN4YTsJCTwvZGVmcz4mI3hhOwkJPGNsaXBQYXRoIGlkPSJTVkdJRF82XyI+JiN4YTsJCQk8dXNlIHhsaW5rOmhyZWY9IiNTVkdJRF81XyIgc3R5bGU9Im92ZXJmbG93OnZpc2libGUiIGlkPSJ1c2U1ODY3MiIgeD0iMCIgeT0iMCIgd2lkdGg9IjEwMCUiIGhlaWdodD0iMTAwJSIvPiYjeGE7CQk8L2NsaXBQYXRoPiYjeGE7CQk8cGF0aCBzdHlsZT0iZmlsbDojNWE3YTk0IiBkPSJtIDM0NS44OCwyMTcuMSBjIC0yLjY5LDAuOTYgLTUuNTEsMS4zOCAtOC4zOCwxLjMyIC0yLjg3LDAuMDYgLTUuNjksLTAuMzYgLTguMzgsLTEuMzIgLTEuNzQsLTAuNzIgLTIuODEsLTEuNjIgLTIuODEsLTIuNTIgMCwtMS41NiAzLjk1LC0zLjc3IDExLjIsLTMuNzcgNy4zLDAgMTEuMjYsMi4yMiAxMS4yNiwzLjc3IC0wLjAxLDAuOTEgLTEuMDksMS44MSAtMi44OSwyLjUyIHogbSAyLjg4LDEzLjEyIGMgMCwwLjkgLTEuMDgsMS44IC0yLjg3LDIuNDYgLTIuNjksMC45NiAtNS41MSwxLjM4IC04LjM4LDEuMzIgLTIuODcsMC4wNiAtNS42OSwtMC4zNiAtOC4zOCwtMS4zMiAtMS43NCwtMC42NiAtMi44MSwtMS42MiAtMi44MSwtMi40NiB2IC00LjAxIGMgMS4zMiwwLjc4IDIuNjksMS4zOCA0LjEzLDEuNjggMi4zMywwLjU0IDQuNjcsMC44NCA3LjA2LDAuNzggNC45MSwwIDguOTIsLTAuOSAxMS4yNiwtMi41OCB2IDQuMTMgeiBtIDAsNy44NSBjIDAsMC45IC0xLjA4LDEuOCAtMi44NywyLjUyIC0yLjY5LDAuOSAtNS41MSwxLjMyIC04LjM4LDEuMjYgLTIuODcsMC4wNiAtNS42OSwtMC4zNiAtOC4zOCwtMS4yNiAtMS43NCwtMC43MiAtMi44MSwtMS42OCAtMi44MSwtMi41MiBWIDIzNCBjIDEuMjYsMC44NCAyLjY5LDEuNDQgNC4xMywxLjggMi4zMywwLjU0IDQuNjcsMC44NCA3LjA2LDAuNzggMi4zOSwwLjA2IDQuNzksLTAuMjQgNy4xMiwtMC43OCAxLjUsLTAuMzYgMi45MywtMC45NiA0LjE5LC0xLjggdiA0LjA3IHogbSAxLjE5LC0yNi4xMiBjIC0wLjc4LC0wLjg0IC0xLjc0LC0xLjUgLTIuODEsLTEuOTIgLTMuMDUsLTEuMiAtNi4zNSwtMS43NCAtOS42NCwtMS42OCAtMy4yOSwtMC4wNiAtNi41OSwwLjQ4IC05LjY0LDEuNjggLTEuMDgsMC40MiAtMi4wNCwxLjA4IC0yLjc1LDEuOTIgLTAuNzIsMC43MiAtMS4wOCwxLjY4IC0xLjA4LDIuNjQgdiAyMy40MiBjIDAsMC45NiAwLjM2LDEuOTIgMS4wOCwyLjY0IDAuNzIsMC44NCAxLjY4LDEuNSAyLjc1LDEuOTIgMi4zOSwxLjE0IDUuNzUsMS43NCA5LjY0LDEuNzQgMy4yOSwwLjEyIDYuNTksLTAuNDIgOS42NCwtMS42MiAxLjA4LC0wLjQ4IDIuMDQsLTEuMTQgMi44MSwtMS45OCAwLjYsLTAuNzIgMS4wMiwtMS42MiAxLjAyLC0yLjY0IHYgLTIzLjQ4IGMgMCwtMC45NiAtMC4zNiwtMS45MiAtMS4wMiwtMi42NCB6IiBjbGlwLXBhdGg9InVybCgjU1ZHSURfNl8pIiBpZD0icGF0aDU4Njc1IiBpbmtzY2FwZTpjb25uZWN0b3ItY3VydmF0dXJlPSIwIi8+JiN4YTsJCTxwYXRoIHN0eWxlPSJmaWxsOiMwMDkyZDEiIGQ9Im0gMzQ4LjcsMjE0LjU5IGMgMCwwLjkgLTEuMDIsMS44IC0yLjg3LDIuNTIgLTIuNjksMC45NiAtNS41MSwxLjM4IC04LjM4LDEuMzIgLTIuODEsMC4wNiAtNS42MywtMC4zNiAtOC4zMiwtMS4zMiAtMS44LC0wLjcyIC0yLjgxLC0xLjYyIC0yLjgxLC0yLjUyIHYgMTEuNjIgYyAxLjI2LDAuNzggMi42MywxLjM4IDQuMTMsMS42OCAyLjI4LDAuNTQgNC42NywwLjg0IDcuMDEsMC43OCA0LjkxLDAgOC45OCwtMC45IDExLjI2LC0yLjU4IHYgLTExLjUgeiIgY2xpcC1wYXRoPSJ1cmwoI1NWR0lEXzZfKSIgaWQ9InBhdGg1ODY3NyIgaW5rc2NhcGU6Y29ubmVjdG9yLWN1cnZhdHVyZT0iMCIvPiYjeGE7CTwvZz4mI3hhOzwvZz4mI3hhOzwvc3ZnPg==;" vertex="1" parent="1">
          <mxGeometry x="59.09" y="700" width="22.5" height="30" as="geometry" />
        </mxCell>
        <mxCell id="-hulnyi_TNN2O9-WLHMJ-65" value="" style="outlineConnect=0;dashed=0;verticalLabelPosition=bottom;verticalAlign=top;align=center;html=1;shape=mxgraph.aws3.api_gateway;fillColor=#D9A741;gradientColor=none;" vertex="1" parent="1">
          <mxGeometry x="163.5" y="250" width="76.5" height="93" as="geometry" />
        </mxCell>
      </root>
    </mxGraphModel>
  </diagram>
</mxfile>
